<?xml version="1.0" encoding="utf-8"?>
<!-- Svg Vector Icons : http://www.onlinewebfonts.com/icon -->
<!DOCTYPE svg PUBLIC "-//W3C//DTD SVG 1.1//EN" "http://www.w3.org/Graphics/SVG/1.1/DTD/svg11.dtd">
<svg version="1.1" xmlns="http://www.w3.org/2000/svg" xmlns:xlink="http://www.w3.org/1999/xlink" x="0px" y="0px" viewBox="0 0 1000 1000" enable-background="new 0 0 1000 1000" xml:space="preserve">
<metadata> Svg Vector Icons : http://www.onlinewebfonts.com/icon </metadata>
<g><g transform="translate(0.000000,410.000000) scale(0.100000,-0.100000)"><path d="M4780.4,3767.8c-359.1-34.3-752.6-187.6-1043.1-409.5l-151-114.4l-146.4,34.3c-388.9,91.5-830.4,0-1205.5-251.6c-526.1-347.7-956.2-1061.4-1120.9-1855.2c-41.2-201.3-93.8-574.2-93.8-674.8c0-22.9-36.6-48-96.1-64C569.1,325.1,251.2-13.4,139.1-402.3c-45.7-155.6-52.6-459.8-13.7-608.5c91.5-352.3,290.5-610.8,622.2-800.6l139.5-80.1l315.7-814.3c324.8-837.2,350-896.7,462.1-1017.9l66.3-70.9l-235.6-475.8l-235.6-475.8l2.3-173.8c0-135,11.4-196.7,52.6-276.8c70.9-139.5,173.9-244.8,311.1-315.7c151-80.1,402.6-84.6,562.7-11.4c203.6,91.5,276.8,194.4,565,786.9l267.6,546.7H5000h1978.7l267.6-546.7c201.3-416.3,290.5-571.9,361.4-642.8c324.8-324.8,839.5-244.8,1063.7,164.7c57.2,102.9,66.3,146.4,68.6,295.1v173.8l-235.6,475.8l-235.6,475.8l66.3,70.9c109.8,121.2,137.2,178.4,462.1,1017.9l315.7,814.3l139.6,80.1c331.7,192.2,530.7,448.4,622.2,800.6c38.9,148.7,32,452.9-13.7,608.5c-112.1,388.9-430,727.4-784.6,834.9c-59.5,16-96.1,41.2-96.1,64c0,100.6-52.6,473.5-93.8,674.8c-164.7,793.8-594.7,1507.5-1120.9,1855.2c-375.2,251.6-816.6,343.1-1205.5,251.6l-146.4-34.3l-151,114.4c-84.6,61.8-210.5,144.1-281.4,183c-178.4,93.8-512.4,201.3-688.5,217.3C5000,3786.1,4961.1,3786.1,4780.4,3767.8z M5491.8,3234.8c240.2-75.5,436.9-196.7,640.5-384.3l164.7-155.5l146.4,59.5c587.9,231,1159.8-13.7,1592.1-681.7c123.5-192.1,212.7-386.6,304.2-672.5c77.8-244.8,167-722.9,155.5-837.2c-6.9-66.3-16-73.2-144.1-107.5c-269.9-75.5-533-263.1-684-487.2C7626-91.2,7495.6-356.6,7379-619.6L7164-1100l-102.9,54.9c-281.4,139.5-773.2,272.2-1260.4,334c-313.4,41.2-1237.5,41.2-1555.5,0c-485-61.8-1017.9-199-1283.3-334c-64-34.3-125.8-52.6-132.7-41.2c-9.2,9.2-91.5,187.6-183,395.7c-274.5,624.5-292.8,658.8-457.5,821.2c-167,167-331.7,267.6-539.8,324.8c-128.1,34.3-137.3,41.2-144.1,107.5c-11.4,114.4,77.8,592.5,155.5,837.2c91.5,285.9,180.7,480.4,304.2,672.5c434.6,668,1004.2,912.7,1592.1,679.4l146.4-57.2l141.8,135c356.9,343.1,732,489.5,1212.4,473.5C5247,3296.6,5354.6,3280.6,5491.8,3234.8z M1628.2-38.6c157.8-70.9,288.2-192.1,361.4-338.5c32-64.1,178.4-384.3,322.5-706.9c144.1-324.8,274.5-615.3,290.5-645l29.7-54.9l233.3,146.4c281.4,176.1,501,267.6,853.2,354.6c411.7,100.6,770.9,139.5,1315.3,137.3c992.8-2.3,1621.8-155.6,2145.7-521.6c98.4-70.9,183-121.2,187.6-116.7s144.1,311.1,308.8,681.7c164.7,370.6,324.8,716,354.6,766.3c304.2,517,1077.4,473.5,1333.6-75.5c86.9-180.7,86.9-464.4,4.6-633.6c-84.6-176.1-235.6-311.1-434.6-393.5l-171.6-70.9l-359.1-921.9c-400.3-1024.8-407.2-1038.5-661.1-1152.9C7459.1-3710,7493.4-3710,5000-3710s-2459.1,0-2742.7,125.8c-253.9,114.4-260.8,128.1-661.1,1152.9l-359.1,921.9l-171.6,70.9c-199,82.4-350,217.3-434.6,393.5c-82.3,167-80.1,452.9,2.3,629.1C813.9-34,1250.8,130.7,1628.2-38.6z M2364.8-4112.6c77.8-20.6,141.8-45.8,141.8-57.2c0-41.2-414-846.4-457.5-889.9c-70.9-70.9-212.7-61.8-272.2,13.7c-27.5,34.3-48,91.5-48,125.8c0,36.6,89.2,244.7,201.3,466.6c173.9,350,205.9,400.3,244.8,388.9C2200.1-4071.5,2284.7-4092.1,2364.8-4112.6z M8072.1-4453.5c109.8-221.9,199-430,199-466.6c0-34.3-20.6-91.5-48-125.8c-59.5-75.5-201.3-84.6-272.2-13.7c-43.5,43.5-457.5,848.7-457.5,887.5c0,18.3,274.5,105.2,354.6,116.7C7861.6-4055.4,7962.3-4233.9,8072.1-4453.5z"/></g></g>
</svg>