<?xml version="1.0" encoding="utf-8"?>
<!-- Svg Vector Icons : http://www.onlinewebfonts.com/icon -->
<!DOCTYPE svg PUBLIC "-//W3C//DTD SVG 1.1//EN" "http://www.w3.org/Graphics/SVG/1.1/DTD/svg11.dtd">
<svg version="1.1" xmlns="http://www.w3.org/2000/svg" xmlns:xlink="http://www.w3.org/1999/xlink" x="0px" y="0px" viewBox="0 0 1000 1000" enable-background="new 0 0 1000 1000" xml:space="preserve">
<metadata> Svg Vector Icons : http://www.onlinewebfonts.com/icon </metadata>
<g><g transform="translate(0.000000,410.000000) scale(0.100000,-0.100000)"><path d="M978.6,3008.3c-185.7-32.5-348.4-160.8-436.4-344.5l-49.8-105.3l-3.8-1579.1l-5.7-1577.2l-65.1-126.3c-76.6-145.5-128.2-279.5-181.8-478.5c-118.7-446-135.9-710.1-135.9-2272v-1345.6h687.1h689.1l5.7,484.3c5.7,553.2,13.4,581.9,155,647c78.5,34.4,179.9,36.4,3363,36.4c3183.1,0,3284.5-1.9,3363-36.4c141.6-65.1,149.3-93.8,155-647l5.7-484.3h689.1H9900v1345.6c0,1561.9-17.2,1826-135.9,2272c-53.6,199-105.3,333-181.8,478.5l-65.1,124.4l-3.8,1579.1l-5.7,1579.1l-49.8,105.3c-63.2,134-170.4,241.2-304.3,304.3l-105.3,49.8l-3990.8,1.9C2862,3021.7,1026.4,3016,978.6,3008.3z M9008.1,2604.5c24.9-11.5,59.3-47.9,78.5-82.3c26.8-53.6,30.6-185.7,24.9-1355.2l-5.7-1295.8l-134,91.9c-72.7,51.7-204.8,130.2-290.9,172.3l-158.9,80.4v468.9c0,514.9-1.9,522.5-118.7,631.6c-231.6,220.1-775.2,321.6-1718.8,321.6c-815.4,1.9-1307.3-65.1-1605.9-218.2l-78.5-38.3l-78.5,38.3c-298.6,153.1-790.5,220.1-1605.9,218.2c-943.6,0-1487.2-101.4-1718.8-321.6c-116.8-109.1-118.7-116.8-118.7-631.6V215.7l-157-80.4c-88-42.1-218.2-120.6-292.8-172.3l-134-91.9L888.6,1167c-5.7,1171.4-1.9,1301.6,26.8,1355.2c17.2,34.4,49.8,70.8,70.8,80.4C1047.5,2631.3,8943,2633.2,9008.1,2604.5z M4004.7,1226.3c287.1-24.9,578.1-84.2,704.4-141.6l99.5-45.9V856.9V677l-118.7-11.5c-67-5.7-319.6-15.3-560.8-19.1C3304.1,627.2,2439,520,1952.8,376.5l-91.9-26.8v344.5v344.5l103.4,47.9c118.7,53.6,403.9,112.9,666.1,137.8C2886.9,1249.3,3746.3,1251.2,4004.7,1226.3z M7335.2,1226.3c298.6-26.8,574.2-82.3,700.5-139.7l103.4-47.9V694.2V349.7l-90,26.8C7561,520,6695.8,627.2,5870.9,646.4c-241.2,3.8-493.8,13.4-558.9,19.1L5191.4,677v179.9v181.8l101.4,45.9c116.8,53.6,426.8,118.7,673.8,141.6C6221.2,1249.3,7082.5,1251.2,7335.2,1226.3z M6512.1,225.3c1316.9-112.9,2038.5-342.6,2463.4-779C9121-703,9166.9-771.9,9258.8-963.3c132.1-275.6,208.6-625.9,231.6-1066.1l13.4-245H5000H496.2l13.4,245c23,440.2,99.5,790.5,231.6,1066.1C833.1-771.9,879-703,1024.5-553.7C1499.2-63.7,2416,183.2,4043,259.7C4439.2,277,6177.1,254,6512.1,225.3z M9507.6-3547.3v-880.5l-290.9-5.7l-292.9-5.8v225.9c0,124.4-9.6,281.3-21,350.3c-51.7,329.2-252.7,535.9-574.2,591.4c-178,30.6-6479.1,30.6-6657.1,0c-321.6-55.5-522.5-262.2-574.2-591.4c-11.5-68.9-21.1-225.8-21.1-350.3v-225.9l-290.9,5.8l-292.8,5.7l-5.7,861.3c-1.9,474.7,0,872.8,5.7,886.2c5.7,19.1,918.7,23,4511.4,19.1l4503.8-5.7V-3547.3z"/></g></g>
</svg>