<?xml version="1.0" encoding="utf-8"?>
<!-- Svg Vector Icons : http://www.onlinewebfonts.com/icon -->
<!DOCTYPE svg PUBLIC "-//W3C//DTD SVG 1.1//EN" "http://www.w3.org/Graphics/SVG/1.1/DTD/svg11.dtd">
<svg version="1.1" xmlns="http://www.w3.org/2000/svg" xmlns:xlink="http://www.w3.org/1999/xlink" x="0px" y="0px" viewBox="0 0 1000 1000" enable-background="new 0 0 1000 1000" xml:space="preserve">
<metadata> Svg Vector Icons : http://www.onlinewebfonts.com/icon </metadata>
<g><path d="M963.7,382.2H198.2c-14.5,0-26.2,11.7-26.2,26.2v464.7c0,14.5,11.7,26.2,26.2,26.2h765.6c14.5,0,26.2-11.7,26.2-26.2V408.4C990,393.9,978.2,382.2,963.7,382.2z M955.5,864.7H206.4V595.2h749v269.5H955.5z M955.5,489.7H206.4v-73.1h749v73.1H955.5z M811.2,630.4h91v91h-91V630.4z M764.6,137.3L826.8,347h35.9l-67.4-227.5c-3.4-11.3-13.8-18.8-25.2-18.8c-2.5,0-4.9,0.3-7.4,1.1L28.7,319.3C14.8,323.5,7,338,11.1,351.9l108.3,365.3h35.9L46.5,350L764.6,137.3z"/></g>
</svg>