<?xml version="1.0" encoding="utf-8"?>
<!-- Svg Vector Icons : http://www.onlinewebfonts.com/icon -->
<!DOCTYPE svg PUBLIC "-//W3C//DTD SVG 1.1//EN" "http://www.w3.org/Graphics/SVG/1.1/DTD/svg11.dtd">
<svg version="1.1" xmlns="http://www.w3.org/2000/svg" xmlns:xlink="http://www.w3.org/1999/xlink" x="0px" y="0px" viewBox="0 0 1000 1000" enable-background="new 0 0 1000 1000" xml:space="preserve">
<metadata> Svg Vector Icons : http://www.onlinewebfonts.com/icon </metadata>
<g><g transform="translate(0.000000,511.000000) scale(0.100000,-0.100000)"><path d="M6838.1,4971.6c-316.9-76.7-633.8-291.3-828-559.7c-697.7-978.8-17.9-2312.8,1175.5-2312.8c421.7,0,736,130.3,1027.3,419.1c360.3,360.3,511.1,840.8,408.9,1318.7c-145.6,692.6-746.2,1180.7-1446.4,1173C7070.6,5009.9,6917.3,4992,6838.1,4971.6z M7617.5,4519.3c426.8-191.7,690-679.8,613.3-1132.1c-145.7-848.4-1180.7-1185.8-1786.3-580.1c-554.6,557.1-327.1,1500.1,424.2,1750.6C7073.2,4626.6,7418.2,4608.7,7617.5,4519.3z"/><path d="M7142.2,4222.8c-7.7-30.7-46-53.7-107.3-63.9c-207-38.3-316.9-255.6-227.5-442.1c35.8-74.1,84.4-115,196.8-171.2l145.7-71.6v-138c0-76.7-10.2-138-20.4-138c-40.9,0-102.2,63.9-112.4,115c-7.7,40.9-30.7,53.7-130.3,58.8l-120.1,7.7v-92c0-127.8,130.3-260.7,278.6-283.7c94.5-15.3,104.8-23,104.8-89.4c0-56.2,12.8-74.1,51.1-74.1c38.3,0,51.1,17.9,51.1,74.1c0,63.9,10.2,76.7,94.6,92c122.7,23,253,153.3,276,276c28.1,148.2-46,270.9-222.3,362.9l-148.2,76.7v122.7c0,132.9,40.9,155.9,89.4,48.6c20.4-46,46-56.2,132.9-56.2c125.2,0,145.7,20.4,107.3,120.1c-43.4,112.4-127.8,186.5-235.1,204.4c-69,10.2-104.8,30.7-112.5,61.3C7216.3,4284.1,7160.1,4284.1,7142.2,4222.8z M7149.8,3862.5c0-112.4-20.4-125.2-86.9-53.7c-35.8,38.3-38.3,61.3-15.3,102.2C7096.2,4003,7149.8,3977.5,7149.8,3862.5z M7354.3,3310.5c0-33.2-23-71.5-51.1-86.9c-48.6-25.6-51.1-20.4-51.1,104.8c0,130.3,0,132.9,51.1,86.9C7331.3,3389.7,7354.3,3343.7,7354.3,3310.5z"/><path d="M4601.9,2715c-495.8-135.5-853.5-472.8-1019.7-966c-89.4-260.7-94.5-623.5-12.8-876.6c145.7-460,513.7-828,973.7-973.7c219.8-69,590.3-74.1,805-12.8c531.5,155.9,937.9,585.2,1047.8,1109.1c51.1,235.1,48.6,421.7-12.8,654.2c-163.6,646.6-692.6,1075.9-1354.5,1104C4842.2,2761,4742.5,2753.4,4601.9,2715z M5205.1,2326.6c291.3-66.5,590.3-304.1,713-569.9c304.1-644-86.9-1385.1-792.2-1502.7c-562.2-92-1106.6,309.2-1201.1,886.8c-69,421.7,158.5,879.1,536.7,1081C4699.1,2349.6,4954.6,2385.4,5205.1,2326.6z"/><path d="M4952.1,1973.9c0-35.8-25.6-53.7-94.6-66.4c-56.2-10.2-127.8-51.1-178.9-102.2c-71.6-71.6-84.3-102.2-84.3-212.1c0-158.5,56.2-235.1,230-309.2l127.8-56.2v-138c0-112.4-7.7-140.6-40.9-140.6c-23,0-53.7,35.8-69,76.7c-28.1,71.6-38.3,76.7-155.9,76.7h-125.2l15.3-94.6c23-130.3,135.5-237.7,268.3-255.6c94.6-12.8,104.8-20.4,112.5-94.5c5.1-51.1,23-81.8,53.7-86.9c35.8-7.7,43.5,10.2,43.5,81.8c0,76.7,10.2,92,53.7,92c92,0,230,81.8,281.1,163.6c112.5,181.5,33.3,378.2-191.7,488.1l-143.1,69v127.8c0,135.4,40.9,158.4,89.4,51.1c20.4-46,46-56.2,150.8-56.2h125.2l-17.9,81.8c-23,112.4-109.9,196.8-237.7,232.5c-66.4,15.3-109.9,46-117.5,74.1C5028.7,2037.8,4952.1,2035.2,4952.1,1973.9z M4952.1,1600.8c0-109.9-2.6-112.4-51.1-84.3c-56.2,35.8-66.4,122.7-20.4,168.7C4934.2,1738.8,4952.1,1718.4,4952.1,1600.8z M5141.2,1122.9c33.2-48.6,35.8-63.9,7.7-107.3c-63.9-94.6-94.6-79.2-94.6,46C5054.3,1189.4,5082.4,1209.8,5141.2,1122.9z"/><path d="M300.9-2449.8v-2248.9h1507.8h1507.8v373.1v373.1l109.9-17.9c171.2-28.1,414-130.3,638.9-265.8c426.8-255.6,812.7-408.9,1270.1-506c301.6-63.9,976.2-63.9,1277.8,0c465.1,99.7,891.9,283.7,1259.9,546.9c235.1,168.7,996.7,902.1,1390.2,1336.6c309.2,342.4,408.9,521.3,431.9,769.2c46,493.2-322,945.6-822.9,1009.5c-296.5,35.8-567.3-117.5-1078.5-610.8l-337.3-329.7l-109.9,150.8c-332.2,447.2-955.8,797.3-1786.3,1001.7c-567.3,140.6-833.1,168.7-1574.2,168.7h-669.6v250.4v247.9H1808.7H300.9V-2449.8z M2894.8-2437v-1814.5l-1078.5-7.7l-1081-5.1V-2437v1827.2l1081-5.1l1078.5-7.7V-2437z M5003.2-1246.1c544.3-97.1,1009.4-263.2,1408.1-503.4c227.5-138,516.2-388.4,572.5-498.3c79.2-153.3,28.1-401.2-109.9-508.5c-184-145.7-429.3-122.7-1111.7,104.8c-250.4,81.8-465.1,150.8-472.8,150.8c-30.7,0-189.1-439.6-166.1-462.6c35.8-35.8,651.7-245.3,940.4-319.4c702.8-178.9,1124.5-35.8,1387.7,467.7c194.3,370.6,812.7,996.7,1150,1162.8c150.8,74.1,166.1,76.7,268.3,46c143.1-40.9,288.8-194.2,311.8-327.1c38.3-235.1,20.4-260.7-774.3-1063.1c-776.9-782-937.9-912.3-1295.7-1060.6c-861.2-360.3-1847.6-286.2-2639.9,194.3c-380.8,230-866.3,416.5-1096.3,416.5h-58.8v1109.1v1109.1l173.8,17.9c94.6,7.7,189.1,20.4,209.6,25.5C3817.4-1154.1,4732.3-1197.5,5003.2-1246.1z"/></g></g>
</svg>