<?xml version="1.0" encoding="utf-8"?>
<!-- Svg Vector Icons : http://www.onlinewebfonts.com/icon -->
<!DOCTYPE svg PUBLIC "-//W3C//DTD SVG 1.1//EN" "http://www.w3.org/Graphics/SVG/1.1/DTD/svg11.dtd">
<svg version="1.1" xmlns="http://www.w3.org/2000/svg" xmlns:xlink="http://www.w3.org/1999/xlink" x="0px" y="0px" viewBox="0 0 1000 1000" enable-background="new 0 0 1000 1000" xml:space="preserve">
<metadata> Svg Vector Icons : http://www.onlinewebfonts.com/icon </metadata>
<g><g transform="translate(0.000000,512.000000) scale(0.100000,-0.100000)"><path d="M3555.5,5000.8c-21-9.6-55.5-36.4-76.5-59.3c-36.4-40.2-38.3-76.5-47.8-1119.3l-9.6-1075.3L2137.7,1646.7c-706-606.5-1303-1111.6-1324-1123.1c-21-11.5-89.9-21-153.1-21c-208.6,0-415.2-139.7-508.9-342.5c-38.3-84.2-40.2-122.5-45.9-849.5L100-1449h4900h4900l-5.7,761.5c-5.8,725.2-7.7,763.4-45.9,847.6c-93.8,202.8-300.4,342.5-508.9,342.5c-63.2,0-132,9.6-153.1,21c-21,11.5-618,516.6-1324,1123.1L6578.5,2746.9l-9.6,1077.2l-9.6,1075.3l-45.9,49.7c-63.1,67-139.6,80.4-227.7,36.4c-49.8-24.9-78.5-53.6-93.8-101.4c-17.2-47.8-23-340.6-23-1046.6l-1.9-981.5H5000H3832.9v972c0,614.2-7.7,996.8-21,1042.8C3783.1,4975.9,3653,5042.9,3555.5,5000.8z M7441.4,1493.7l1144.2-981.5l-1792.8-5.7c-985.4-1.9-2600.2-1.9-3585.6,0l-1792.8,5.7l1144.2,981.5l1144.2,979.6H5000h1297.2L7441.4,1493.7z M9400.6,91.2c101.4-51.7,105.2-74.6,111-625.7l5.7-512.8H5000H482.7l5.7,512.8c3.8,369.3,13.4,522.3,30.6,552.9c59.3,107.2-239.2,99.5,4477.2,101.4C8838.1,119.9,9350.9,116.1,9400.6,91.2z"/><path d="M2727-2080.4c-80.4-67-88-132-30.6-288.9c166.5-465,181.8-707.9,57.4-983.5c-128.2-290.8-133.9-562.5-19.1-960.5c111-380.7,210.5-503.2,365.4-443.9c42.1,17.2,86.1,51.7,107.1,89.9l36.4,63.1l-89.9,271.7c-76.5,229.6-91.8,300.4-99.5,463c-9.6,179.9-5.7,202.8,42.1,315.7c122.4,290.8,130.1,323.4,130.1,545.3c0,235.3-42.1,442-143.5,713.7c-68.9,185.6-133.9,252.6-241.1,252.6C2801.6-2044.1,2751.9-2059.4,2727-2080.4z"/><path d="M4096.9-2086.2c-78.4-72.7-86.1-137.8-36.4-271.7c88-229.6,135.8-424.8,147.3-583.6c13.4-174.1,3.8-214.3-116.7-497.5c-103.3-241.1-86.1-574,51.7-991.1c89.9-271.7,174.1-367.4,298.5-338.7c153.1,34.4,191.3,158.8,112.9,357.8c-88,220-133.9,417.1-133.9,589.3c-1.9,151.2,3.8,176,78.4,348.2c149.2,346.3,135.8,713.7-45.9,1184.4c-70.8,181.8-114.8,229.6-218.1,241.1C4162-2040.2,4140.9-2046,4096.9-2086.2z"/><path d="M5457.3-2097.6c-70.8-70.8-72.7-143.5-7.7-310c84.2-210.5,128.2-417.1,130.1-591.2c1.9-147.3-5.8-177.9-67-315.7c-93.8-208.6-112.9-288.9-112.9-489.8c0-241.1,26.8-369.3,137.8-688.8c72.7-204.7,135.9-275.5,248.7-275.5c65,0,88,11.5,133.9,63.1c70.8,78.5,70.8,122.5-9.6,336.7c-88,231.5-133.9,464.9-120.5,612.3c5.7,80.3,34.4,176,91.8,308l84.2,191.3v258.3c-1.9,273.6-24.9,394.1-137.8,698.4C5736.6-2053.6,5585.5-1971.4,5457.3-2097.6z"/><path d="M6842.5-2084.3c-88-97.6-91.9-156.9-17.2-331c67-156.9,126.3-432.4,126.3-587.4c0-133.9-9.6-172.2-76.5-329.1c-135.8-321.4-143.5-575.9-26.8-977.7c111-384.6,208.6-507,365.5-447.7c42.1,17.2,86.1,51.7,107.1,89.9l36.4,63.1l-91.9,281.3c-89.9,267.9-93.8,290.8-93.8,491.7c0,202.8,1.9,216.2,70.8,363.5c88,189.4,120.5,369.3,103.3,562.5c-26.8,298.5-168.3,734.7-264,815.1C7007.1-2026.9,6898-2024.9,6842.5-2084.3z"/></g></g>
</svg>