<?xml version="1.0" encoding="utf-8"?>
<!-- Svg Vector Icons : http://www.onlinewebfonts.com/icon -->
<!DOCTYPE svg PUBLIC "-//W3C//DTD SVG 1.1//EN" "http://www.w3.org/Graphics/SVG/1.1/DTD/svg11.dtd">
<svg version="1.1" xmlns="http://www.w3.org/2000/svg" xmlns:xlink="http://www.w3.org/1999/xlink" x="0px" y="0px" viewBox="0 0 1000 1000" enable-background="new 0 0 1000 1000" xml:space="preserve">
<metadata> Svg Vector Icons : http://www.onlinewebfonts.com/icon </metadata>
<g><path d="M977.1,257c-8.8-18.9-20.2-33.7-34.3-44.3c-14.1-10.7-30.2-18-47.9-22.1c-17.8-4.1-35.6-6-53.8-6c-22.9,0-45,2.9-66,8.5c-20.9,5.7-39.5,15.5-55.6,29.2c-12.7,10.7-23.1,24.4-31.7,40.7c-2.3,4.5-4.6,9-6.6,13.9c-2.1,5-4,10.3-5.5,15.9c-0.4,1.1-0.8,2.1-1,3.2c-1.3,4.7-2.3,9.8-3.3,14.9c-2.9,15.1-4.4,31.8-4.4,50.4c0,4.2,0,8.4,0.1,12.5l0,0c0.1,5.9,0.6,11.6,0.9,17.1c0.1,1.1,0.3,2.2,0.4,3.3c1,11.1,2.4,21.4,4.5,31c0.1,0.6,0.3,1.2,0.4,1.8c1.6,7.7,3.7,15,6.2,21.7c8.3,22.8,20.2,41,35.6,54.4c15.5,13.4,34.3,22.6,56.4,27.7c22.2,5.2,47.5,7.7,75.4,7.7c6.6,0,13.6-0.3,21.1-0.9c7.4-0.5,14.4-1.1,21.3-2c6.8-0.8,13.1-1.8,18.7-2.8c5.7-1.2,10.3-2.3,13.5-3.4v-23.8c0-5-0.5-8.8-1.5-11.5c-0.9-2.5-4.2-4-9.8-4c-3.9,0-10.8,0.5-21,1.7c-3,0.3-6.2,0.6-9.7,0.9c-0.2,0-0.5,0-0.6,0c-3.5,0.2-7.2,0.3-11,0.5c-5.7,0.1-11.8,0.3-18.5,0.3c-23.1,0-42.9-2-59.5-5.9c-16.5-3.9-30.1-10.8-40.6-20.7c-10.5-9.8-18.3-23.3-23.3-40.4c-1.9-6.4-3.4-13.7-4.5-21.5c-0.8-5.2-1.4-10.8-1.9-16.5c-0.1-1.7-0.3-3.3-0.4-5.1c-0.1-2.2-0.2-4.5-0.4-6.6c-0.2-5-0.3-10-0.3-15.4c0-5.7,0.2-11,0.5-16.2c0.3-4.9,0.8-9.7,1.3-14.2c0.6-4.7,1.4-9.2,2.3-13.5c0.8-3.6,1.6-7.1,2.5-10.4c1.1-3.7,2.1-7.5,3.5-10.9c1.5-3.8,3.2-7.4,4.9-10.8c0.6-1.3,1.3-2.5,2-3.7c1.2-2,2.3-4,3.5-5.9c0.9-1.4,1.8-2.8,2.7-4.2c1.1-1.6,2.3-3,3.5-4.5c1.1-1.3,2.1-2.7,3.2-3.9c2.3-2.6,4.7-5.1,7.3-7.4c11.2-9.9,24.4-16.7,39.2-20.4c14.9-3.7,30.4-5.7,46.5-5.7c34.7,0,59.7,8.1,75,24.1c15.3,16.2,22.9,41.4,22.9,75.8c0,28.9-3.2,49.7-9.5,62.5c-2,4-4.5,7.2-7.3,9.9c-3.3,3-7.1,5.4-11.4,6.9c-0.2,0-0.4,0.1-0.6,0.1c-1.8,0.6-3.7,1.1-5.7,1.5c-0.6,0-1.1,0.2-1.6,0.3c-2.3,0.3-4.6,0.5-7.2,0.5l7.4-124.1c0.2-1.8,0.2-3.5,0-5.1c-0.4-4.7-2.1-8.1-5.3-10.2c-2.3-1.3-4.6-2.5-7.1-3.4c-2.2-0.8-4.6-1.4-7.1-1.8c-6.4-1.1-12.7-1.9-18.7-2.5s-12.4-0.8-18.7-0.8c-19.2,0-34.7,3.1-46.9,9.3c-12.1,6.2-21.5,14.6-28.3,25.2c-6.8,10.5-11.4,22.7-13.7,36.4c-2.3,13.8-3.5,28.1-3.5,43.1c0,14.7,1.4,27,4.2,36.8c2.8,9.8,6.5,17.9,11,24.1c4.5,6.4,10,10.8,16.3,13.4c6.2,2.6,12.9,4,20.2,4c10.9,0,19.7-2.3,26.7-6.9c6.9-4.5,13-9.9,18.3-16.1l2.8,8c2.1,5.5,4.1,9.4,6.4,11.7c2.1,2.3,5.8,3.3,10.8,3.3H890c4,0,7.7-0.2,11.5-0.4c1.5-0.1,3.2-0.3,4.7-0.5c1.4-0.1,2.6-0.4,4-0.5c4.3-0.5,8.2-1.3,12.1-2.3h0.1c5.7-1.6,11.2-3.3,16-5.7c12.8-6.2,23-14.9,30.6-26.2c7.6-11.2,13.2-24.5,16.3-39.8c3.2-15.3,4.7-32.1,4.7-50.4C990.1,300.1,985.8,275.8,977.1,257 M841,407.3c-3.9,1.7-8.4,2.6-13.6,2.6c-6.4,0-10.7-2.3-13.4-6.5c-2.5-4.3-3.7-12.6-3.7-24.8c0-8.3,0.2-16.5,0.7-24.8c0.4-8.1,1.5-15.6,3-22.1c0.3-0.7,0.5-1.2,0.8-1.8c0.8-2.8,1.8-5.4,2.8-7.7c1.3-2.3,2.7-4.6,4.2-6.4c3.5-4.2,8.4-6.2,14.8-6.2h5c1.6,0,3.4,0.1,5,0.4L841,407.3z"/><path d="M893.6,571.5c-7.4,0.8-15.1,1.6-22.9,2.1c-0.9,0.1-1.8,0.1-2.8,0.2V761H64.5V317.4h37l364.9,293.1L646.7,465c-0.5-1.5-1.1-2.8-1.6-4.2c-6.4-17.3-10.5-36.8-12.8-59.1l-166,133.8L195.1,317.4h438.1c2.6-20.2,7.4-38.4,14.1-54.5c-254.3,0-637.3,0-637.3,0V761c0,33.2,26.6,54.5,54.5,54.5c22.2,0.1,858,0,858,0s0-124.5,0.1-249c-2.3,0.6-5,1.1-7.6,1.6C908.4,569.5,901.1,570.6,893.6,571.5"/></g>
</svg>