<?xml version="1.0" encoding="utf-8"?>
<!-- Svg Vector Icons : http://www.onlinewebfonts.com/icon -->
<!DOCTYPE svg PUBLIC "-//W3C//DTD SVG 1.1//EN" "http://www.w3.org/Graphics/SVG/1.1/DTD/svg11.dtd">
<svg version="1.1" xmlns="http://www.w3.org/2000/svg" xmlns:xlink="http://www.w3.org/1999/xlink" x="0px" y="0px" viewBox="0 0 1000 1000" enable-background="new 0 0 1000 1000" xml:space="preserve">
<metadata> Svg Vector Icons : http://www.onlinewebfonts.com/icon </metadata>
<g><g transform="translate(0.000000,511.000000) scale(0.100000,-0.100000)"><path d="M2820.8,3180C1657.7,2313.5,571.9,1503.7,409.5,1379.9l-296.6-221.8l-7.7-2790.4L100-4420.2l67.1-54.2l69.6-54.2H5000h4763.3l69.6,54.2l67,51.6v2785.3v2782.7l-147,113.5c-82.5,61.9-1163.1,871.7-2403.6,1795C5817.5,4193.5,5069.6,4737.7,5015.5,4748C4943.3,4758.3,4734.4,4608.7,2820.8,3180z M5397.2,4002.7c214-159.9,1005.8-747.9,1756.3-1310.1c753.1-562.2,1516.4-1129.6,1696.9-1263.7l330.1-245l-649.9-7.7c-358.5-2.6-657.6,0-665.4,10.3c-7.7,7.7-18,144.4-18,301.7c-2.6,159.9-5.2,337.8-7.8,399.7l-2.6,108.3H5000H2163.2l-5.2-108.3c0-61.9-2.6-239.8-5.1-399.7c-2.6-157.3-10.3-294-18.1-301.7c-7.7-10.3-306.9-12.9-665.4-10.3l-647.3,7.7l2081.2,1552.5C4051,3590.1,4992.3,4291.5,4997.4,4291.5C5002.6,4291.5,5180.5,4160,5397.2,4002.7z M5492.6,1096.2c203.8-77.4,340.4-206.3,441-410c74.8-152.2,85.1-196,85.1-379.1c0-172.8-12.9-229.5-72.2-353.3c-134.1-270.8-348.2-433.3-606.1-453.9c-110.9-10.3-152.2-2.6-211.5,41.3c-72.2,54.2-72.2,54.2-170.2,2.6c-325-165.1-665.4,113.5-619,505.5c31,263.1,196,526.1,386.8,616.4c134.1,64.5,325,54.2,438.4-23.2c87.7-59.3,92.8-59.3,92.8-12.9S5276,681,5415.2,681c149.6,0,157.3-2.6,144.4-56.7c-98-412.6-175.4-853.6-154.7-874.3c33.5-33.5,152.1,23.2,229.5,110.9c237.3,257.9,234.7,675.7-7.7,902.6c-136.7,131.5-304.3,185.7-562.2,185.7c-319.8,0-469.4-54.2-660.2-239.8c-193.4-190.8-263-368.8-265.6-673.1c-2.6-190.8,7.7-237.3,69.6-366.2c157.3-319.8,433.3-446.2,928.4-428.1c322.4,10.3,479.7,61.9,626.7,203.8c69.6,67,95.4,77.4,201.2,69.6l123.8-7.7l-80-105.7c-105.7-147-232.1-237.3-430.7-309.5C5144.4-1067.5,4541-985,4231.5-727.1c-188.3,159.9-314.6,471.9-314.6,776.3c2.6,526.1,312.1,946.5,802.1,1083.2C4917.5,1186.5,5304.3,1171,5492.6,1096.2z M2147.7,572.7c23.2-319.8,10.3-642.2-25.8-629.3c-28.4,10.3-1026.4,742.7-1078,791.7c-15.5,12.9,208.9,23.2,531.3,23.2h557L2147.7,572.7z M8956.1,735.2c-51.6-49-1049.6-781.4-1080.6-791.7c-33.5-12.9-51.6,471.9-23.2,693.7l15.5,121.2h557C8744.6,758.4,8971.6,748.1,8956.1,735.2z M2111.6-567.2c858.8-639.6,1843.9-1374.6,2192.1-1635.1c544.2-407.5,642.2-471.9,709.2-464.2c54.2,7.7,729.8,497.7,2228.2,1617C8424.8-164.9,9420.3,575.3,9453.8,595.9l59.3,38.7v-2375.2v-2375.2H5000H486.8v2375.2c0,1890.4,7.7,2370,33.5,2354.6C535.8,603.6,1252.8,72.4,2111.6-567.2z"/><path d="M4814.3,446.3c-136.7-103.2-221.8-484.8-141.8-642.2c87.7-172.8,314.6-113.5,417.8,110.9c72.2,152.2,103.2,322.4,79.9,417.8C5128.9,492.7,4953.6,549.5,4814.3,446.3z"/></g></g>
</svg>