<?xml version="1.0" encoding="utf-8"?>
<!-- Svg Vector Icons : http://www.onlinewebfonts.com/icon -->
<!DOCTYPE svg PUBLIC "-//W3C//DTD SVG 1.1//EN" "http://www.w3.org/Graphics/SVG/1.1/DTD/svg11.dtd">
<svg version="1.1" xmlns="http://www.w3.org/2000/svg" xmlns:xlink="http://www.w3.org/1999/xlink" x="0px" y="0px" viewBox="0 0 1000 1000" enable-background="new 0 0 1000 1000" xml:space="preserve">
<metadata> Svg Vector Icons : http://www.onlinewebfonts.com/icon </metadata>
<g><g transform="translate(0.000000,512.000000) scale(0.100000,-0.100000)"><path d="M1885.5,4998.5c-109.2-34.5-239.4-128.3-300.7-216.5c-116.9-170.5-109.2,153.2-109.2-4382.6v-4141.3l57.5-116.8c90-178.1,249-298.8,431-323.7l86.2-11.5v-91.9c0-178.2,36.4-283.5,124.5-373.5c116.9-114.9,176.2-126.5,620.6-118.8c369.7,5.8,377.4,5.8,448.2,57.5c130.3,88.1,170.5,168.6,182,362l9.6,170.5H5000H6565l9.6-170.5c11.5-193.5,51.7-273.9,182-362c70.9-51.7,78.5-51.7,448.2-57.5c444.4-7.7,503.8,3.9,620.6,118.8c88.1,90,124.5,195.4,124.5,373.5v91.9l86.2,11.5c182,24.9,340.9,145.6,431,323.7l57.5,116.8V401.3c0,4137.4,0,4143.2-40.2,4248.5c-47.9,128.3-164.8,254.8-295,318l-95.8,47.9l-3064.8,3.8C2571.2,5021.5,1948.7,5017.6,1885.5,4998.5z M8039.9,4607.7c103.4-59.4,101.5-15.3,101.5-1622.4V1500.8H5000H1858.7v1490.2c0,1446.2,1.9,1490.2,38.3,1549.6c21.1,36.4,59.4,67,90,74.7c28.7,5.7,63.2,13.4,72.8,17.2c11.5,3.8,1350.4,5.7,2978.6,3.8C7402.1,4632.6,8007.4,4626.9,8039.9,4607.7z M8141.4-1267c0-2599.3,7.7-2446.1-114.9-2509.3c-49.8-24.9-408-28.7-3026.5-28.7s-2976.7,3.8-3026.5,28.7c-122.6,63.2-114.9-90-114.9,2509.3v2365.6H5000h3141.4V-1267z M3036.7-4293.5v-95.8h-287.3H2462l-5.7,101.5l-5.8,101.5l293.1-5.8l293.1-5.7V-4293.5z M7543.8-4287.8l-5.7-101.5h-287.3h-287.3l-5.8,74.7c-11.5,128.3-17.3,126.4,302.7,126.4h289.2L7543.8-4287.8z"/><path d="M2726.4,3801.3c-24.9-21.1-51.7-59.4-63.2-88.1c-24.9-65.1-26.8-1425.1,0-1492.2c32.6-88.1,88.1-126.4,180-126.4c70.9,0,91.9,9.6,134.1,57.5c26.8,32.6,53.6,86.2,59.4,120.7c5.7,34.5,9.6,373.5,5.7,756.6l-5.7,697.2l-63.2,55.5C2898.8,3849.2,2793.4,3856.9,2726.4,3801.3z"/><path d="M2716.8,449.2l-63.2-55.6l-5.7-729.8c-5.8-817.9-1.9-842.8,116.8-892.6c107.3-44.1,205,0,254.8,118.7c38.3,92,38.3,1396.4,0,1488.3C2963.9,512.4,2824.1,545,2716.8,449.2z"/></g></g>
</svg>