<?xml version="1.0" encoding="utf-8"?>
<!-- Svg Vector Icons : http://www.onlinewebfonts.com/icon -->
<!DOCTYPE svg PUBLIC "-//W3C//DTD SVG 1.1//EN" "http://www.w3.org/Graphics/SVG/1.1/DTD/svg11.dtd">
<svg version="1.1" xmlns="http://www.w3.org/2000/svg" xmlns:xlink="http://www.w3.org/1999/xlink" x="0px" y="0px" viewBox="0 0 1000 1000" enable-background="new 0 0 1000 1000" xml:space="preserve">
<metadata> Svg Vector Icons : http://www.onlinewebfonts.com/icon </metadata>
<g><g transform="translate(0.000000,511.000000) scale(0.100000,-0.100000)"><path d="M2866.7,3109.8C1701.2,2149.1,603.9,1242.6,424.9,1094.2L100,825.8l47.1-63.6c25.9-35.3,82.4-106,127.1-155.4l80.1-94.2l303.7,251.9l303.7,254.3l7.1-2827.9l4.7-2825.6H5000h4026.4l4.7,2825.6l7,2827.9l303.8-252L9648.1,515l80.1,91.8c44.8,49.4,101.2,120.1,124.8,155.4l47.1,63.6l-430.9,357.9l-430.9,355.6l-11.8,1134.9l-11.8,1132.6h-600.4h-600.4l-11.8-619.3l-11.8-619.3L6405.7,3712.6c-762.9,628.7-1394,1142-1405.7,1142C4990.6,4854.6,4029.9,4068.2,2866.7,3109.8z M6829.6,2839L8626.2,1358v-2795v-2797.3h-400.3h-400.3l-4.7,2008.5l-7.1,2006.2l-1205.6,7.1l-1207.9,4.7v-2013.2v-2013.2l-2006.2,4.7l-2008.5,7.1l-4.7,2790.2l-7.1,2790.3l1808.4,1490.5c993.7,817.1,1815.4,1485.8,1827.2,1481.1C5021.2,4324.8,5840.6,3656.1,6829.6,2839z M8621.5,2657.7c2.3-520.4-2.3-748.8-18.9-741.7c-14.1,4.7-103.6,70.6-200.1,148.3l-176.6,141.3v607.5v607.5l195.4-7.1l193.1-7.1L8621.5,2657.7z M7401.7-2421.2v-1813.1h-800.6h-800.6v1813.1v1813.1h800.6h800.6V-2421.2z"/><path d="M2198-1208.6v-1000.7h1200.9h1200.9v1000.7v1000.7H3398.9H2198V-1208.6z M4199.4-1208.6V-1809h-800.6h-800.6v600.4v600.4h800.6h800.6V-1208.6z"/></g></g>
</svg>