<?xml version="1.0" encoding="utf-8"?>
<!-- Svg Vector Icons : http://www.onlinewebfonts.com/icon -->
<!DOCTYPE svg PUBLIC "-//W3C//DTD SVG 1.1//EN" "http://www.w3.org/Graphics/SVG/1.1/DTD/svg11.dtd">
<svg version="1.1" xmlns="http://www.w3.org/2000/svg" xmlns:xlink="http://www.w3.org/1999/xlink" x="0px" y="0px" viewBox="0 0 1000 1000" enable-background="new 0 0 1000 1000" xml:space="preserve">
<metadata> Svg Vector Icons : http://www.onlinewebfonts.com/icon </metadata>
<g><g transform="translate(0.000000,512.000000) scale(0.100000,-0.100000)"><path d="M1790.1,4974.1l-53.6-45.9v-392.4c0-390.5,0-394.3,45.9-442.2c40.2-42.1,63.2-49.8,158.9-49.8h111v-162.7v-160.8l-930.2-5.7l-930.2-5.7l-45.9-53.6l-45.9-53.6v-2094v-2094l45.9-51.7c34.5-40.2,61.3-53.6,114.8-53.6c68.9,0,151.2,80.4,2404.1,2333.3L5000,3976.8l2335.2-2335.2C9588-611.2,9670.3-691.6,9739.2-691.6c53.6,0,80.4,13.4,114.8,53.6l45.9,51.7v2094v2094l-45.9,53.6l-45.9,53.6l-1607.8,5.7l-1607.8,3.8l-59.3-49.8c-76.6-63.2-82.3-158.9-11.5-227.8l45.9-47.9h1504.4h1502.5V1628.3V-138.4L7329.4,2106.8C5290.9,4145.3,5078.5,4352,5011.5,4363.5l-72.7,11.5L2682.1,2118.3L425.4-138.4v1766.7V3393h934.1h936l40.2,44c40.2,42.1,42.1,61.3,42.1,438.3c0,478.5,0,476.6-199.1,490l-126.3,7.7v160.8v160.8H2550h497.7v-160.8v-160.8l-126.3-7.7c-199.1-13.4-199.1-11.5-199.1-491.9c0-514.9-28.7-480.4,400-480.4c304.3,0,310.1,1.9,356,47.9c70.8,68.9,65.1,164.6-11.5,227.8c-53.6,45.9-72.7,49.8-239.3,49.8h-179.9v162.7v162.7H3151c84.2,0,116.8,9.6,158.9,45.9l53.6,45.9v396.2v396.2l-53.6,45.9l-53.6,45.9H2550h-706.3L1790.1,4974.1z"/><path d="M4756.9,2357.5c-134-51.7-271.8-179.9-340.7-317.7c-51.7-97.6-57.4-130.2-57.4-283.3c0-149.3,7.7-185.7,53.6-281.4c68.9-141.6,227.8-287.1,361.8-333c130.2-44,321.6-44,451.7,0c134,45.9,292.8,191.4,361.8,333c45.9,95.7,53.6,132.1,53.6,281.4c0,153.1-5.7,185.7-57.4,283.3c-68.9,139.7-208.6,266.1-346.4,317.7C5099.5,2411.1,4892.8,2409.2,4756.9,2357.5z M5187.6,2016.8c170.4-120.6,181.8-373.2,24.9-505.3c-130.1-109.1-294.8-109.1-424.9,0c-178,149.3-134,451.7,78.5,539.8C4946.4,2085.7,5118.7,2066.6,5187.6,2016.8z"/><path d="M1790.1-576.7l-53.6-45.9l-5.7-939.8l-5.7-939.8h-105.3c-128.2,0-166.5-19.1-199.1-95.7c-32.5-80.4,3.8-168.4,88-202.9c93.8-38.3,1988.7-38.3,2082.5,0c84.2,34.4,120.6,122.5,88,202.9c-32.5,76.6-70.8,95.7-199.1,95.7H3375l-5.7,939.8l-5.7,939.8l-53.6,45.9l-53.6,45.9H2550h-706.3L1790.1-576.7z M3043.8-1185.4l3.8-321.6H2550h-497.7v312c0,172.3,5.7,319.6,13.4,327.3c7.7,5.7,227.8,9.6,491.9,7.6l480.4-5.7L3043.8-1185.4z M3038.1-2167.3v-325.4H2550h-488.1l-5.7,306.3c-1.9,166.5,0,315.8,3.8,329.2c7.7,21.1,109.1,24.9,493.8,21.1l484.3-5.7V-2167.3z"/><path d="M4110-553.8c-88-49.8-84.2,0-86.1-1665.2v-1584.8h-277.5c-271.8,0-281.4-1.9-325.4-47.9c-47.9-45.9-47.9-47.9-47.9-440.2s0-394.3,47.9-440.2c59.3-61.3,143.6-61.3,214.4-1.9c53.6,45.9,53.6,45.9,59.3,325.4l5.7,279.4h1397.3c1479.6,0,1483.4,0,1517.9,86.1c24.9,67,11.5,145.5-36.4,191.4c-44,45.9-53.6,47.9-325.4,47.9h-277.5V-2219c-1.9,1674.8,1.9,1617.4-90,1665.2C5826.9-521.2,4165.5-523.1,4110-553.8z M5650.8-1505V-2152l-118.7-11.5c-97.6-9.6-128.3-19.1-162.7-61.3c-112.9-130.2-3.8-277.5,204.8-277.5h76.6V-3153v-650.8H5000h-650.8V-2330v1473.8H5000h650.8V-1505z"/><path d="M6690.1-576.7l-53.6-45.9l-5.7-939.8l-5.7-939.8h-105.3c-128.3,0-166.5-19.1-199.1-95.7c-30.6-74.7,1.9-162.7,78.5-201c76.6-40.2,1996.4-42.1,2092.1-1.9c84.2,34.4,120.6,122.5,88,202.9c-32.5,76.6-70.8,95.7-199.1,95.7H8275l-5.7,939.8l-5.7,939.8l-53.6,45.9l-53.6,45.9H7450h-706.3L6690.1-576.7z M7943.8-1185.4l3.8-321.6H7450h-497.7v312c0,172.3,5.7,319.6,13.4,327.3c7.6,5.7,227.8,9.6,491.9,7.6l480.4-5.7L7943.8-1185.4z M7938.1-2167.3v-325.4H7450h-488.1l-5.7,306.3c-1.9,166.5,0,315.8,3.8,329.2c7.6,21.1,109.1,24.9,493.8,21.1l484.3-5.7V-2167.3z"/><path d="M831.2-716.4c-13.4-5.7-36.4-34.5-51.7-63.2c-24.9-47.9-28.7-246.9-28.7-1374.3v-1318.8l-95.7-11.5c-206.7-24.9-405.8-179.9-501.5-388.5c-67-143.6-63.2-380.9,9.6-526.4c61.3-128.3,208.6-271.8,335-329.2c88.1-42.1,101.5-42.1,1144.6-42.1h1054.7l91.9,57.4c336.9,208.6,329.2,677.6-13.4,853.7c-47.9,24.9-76.6,55.5-84.2,90c-65.1,266.1-298.6,509.2-560.8,585.7c-147.4,42.1-359.8,40.2-495.7-7.7c-189.5-67-313.9-168.4-451.7-371.3c-19.1-28.7-30.6-32.5-65.1-13.4l-42.1,22.9V-2175v1378.1l-47.9,45.9C984.3-705,896.2-689.6,831.2-716.4z M2100.2-3524.4c101.4-45.9,208.6-153.1,241.2-239.3c11.5-26.8,28.7-95.7,38.3-153.1c23-141.6,59.3-189.5,153.1-204.8c166.5-26.8,231.6-178,122.5-285.2l-45.9-47.9h-958.9c-1041.3,0-1031.7,0-1133.1,107.2c-143.6,153.1-111,390.5,68.9,495.8c185.7,109.1,394.3,36.4,513-179.9c40.2-70.8,109.1-107.2,178-89.9c80.4,21,116.8,72.7,132.1,191.4c15.3,135.9,61.3,227.8,160.8,323.5C1707.8-3472.7,1920.3-3440.2,2100.2-3524.4z"/><path d="M8971.7-750.9l-47.9-45.9V-2175v-1378.1l-42.1-22.9c-34.5-19.1-45.9-15.3-65.1,13.4c-193.3,283.3-411.5,409.6-702.5,409.6c-248.8,0-434.5-78.5-602.9-254.6c-103.4-111-160.8-206.7-193.3-333c-17.2-61.3-38.3-90-84.2-112.9c-78.5-40.2-181.8-135.9-216.3-202.9c-45.9-90-68.9-231.6-49.8-317.7l19.1-80.4H5551.2H4117.6l-45.9-47.9c-67-65.1-65.1-168.4,3.8-231.6l49.8-45.9l2643.3,3.8l2643.3,5.7l90,42.1c126.3,57.4,273.7,201,335,329.2c72.7,145.5,76.6,382.8,9.6,526.4c-95.7,208.6-294.8,363.7-501.5,388.5l-95.7,11.5v1318.8c0,1395.3,0,1404.9-86.1,1439.4C9096.1-689.6,9017.6-703,8971.7-750.9z M8261.6-3501.4c120.6-36.4,268-191.4,306.3-319.7c17.2-57.4,30.6-128.2,30.6-158.9c0-99.5,126.3-176.1,222-132.1c26.8,11.5,63.2,47.9,80.4,80.4c118.7,216.3,327.3,289,513,179.9c179.9-105.3,212.5-342.6,68.9-495.8c-101.4-107.2-91.9-107.2-1133.1-107.2h-958.9l-45.9,47.9c-109.1,107.2-44,258.4,122.5,285.2c97.6,15.3,132.1,65.1,155,220.1C7666.3-3593.3,7957.2-3411.4,8261.6-3501.4z"/></g></g>
</svg>