<svg version="1.1" xmlns="http://www.w3.org/2000/svg" xmlns:xlink="http://www.w3.org/1999/xlink" x="0px" y="0px" viewBox="0 0 1000 1000" enable-background="new 0 0 1000 1000" xml:space="preserve">
    <metadata> Svg Vector Icons : http://www.onlinewebfonts.com/icon</metadata>
    <g>
        <path d="M821.9,528v15.1h74.2L499.2,140.3l-146.9,150v19.7l146.9-148.4l359,366.6H141.8l119.7-130.3v-18.2L103.9,543.2h66.6V528H821.9z" />
        <path d="M352.3,255.4h-90.9v124.2l90.9-89.4V255.4z" />
        <path d="M352.3,309.9v-19.7l-90.9,89.4v18.2L352.3,309.9z" />
        <path d="M309.9,149.4c0-47-42.4-78.8-42.4-125.7c0-4.5,0-9.1,1.5-13.6c-22.7,10.6-40.9,34.8-40.9,59.1c0,37.9,53,66.6,53,112.1C281.1,209.9,309.9,182.7,309.9,149.4z" />
        <path d="M806.7,543.2v378.7H564.4l0,0h257.5V543.2H806.7z" />
        <path d="M200.9,921.8V543.2h-30.3v378.7h257.5l0,0H200.9z" />
        <path d="M200.9,543.2h605.9l0,0h15.1V528H170.6v15.1H200.9z" />
        <path d="M503.8,240.2L503.8,240.2v605.9l0,0V240.2z" />
        <path d="M496.2,853.7L496.2,853.7V990l0,0V853.7L496.2,853.7z" />
        <path d="M428.1,694.6h136.3v227.2H428.1V694.6L428.1,694.6z" />
        <path d="M231.1,618.9h106v106h-106V618.9z" />
        <path d="M670.4,618.9h106v106h-106V618.9z" />
    </g>
</svg>