<?xml version="1.0" encoding="UTF-8" standalone="no"?>
<svg
   xmlns:osb="http://www.openswatchbook.org/uri/2009/osb"
   xmlns:dc="http://purl.org/dc/elements/1.1/"
   xmlns:cc="http://creativecommons.org/ns#"
   xmlns:rdf="http://www.w3.org/1999/02/22-rdf-syntax-ns#"
   xmlns:svg="http://www.w3.org/2000/svg"
   xmlns="http://www.w3.org/2000/svg"
   xmlns:xlink="http://www.w3.org/1999/xlink"
   xmlns:sodipodi="http://sodipodi.sourceforge.net/DTD/sodipodi-0.dtd"
   xmlns:inkscape="http://www.inkscape.org/namespaces/inkscape"
   viewBox="0 0 1791.5535 496.31873"
   width="167.95815"
   height="46.529881"
   version="1.1"
   id="svg58"
   sodipodi:docname="logo.svg"
   inkscape:version="1.0.1 (3bc2e813f5, 2020-09-07)">
  <metadata
     id="metadata64">
    <rdf:RDF>
      <cc:Work
         rdf:about="">
        <dc:format>image/svg+xml</dc:format>
        <dc:type
           rdf:resource="http://purl.org/dc/dcmitype/StillImage" />
      </cc:Work>
    </rdf:RDF>
  </metadata>
  <defs
     id="defs62">
    <linearGradient
       id="linearGradient3508"
       osb:paint="solid">
      <stop
         style="stop-color:#000000;stop-opacity:1;"
         offset="0"
         id="stop3506" />
    </linearGradient>
    <linearGradient
       inkscape:collect="always"
       xlink:href="#linearGradient3508"
       id="linearGradient3510"
       x1="559.51073"
       y1="276.82815"
       x2="1451.9524"
       y2="276.82815"
       gradientUnits="userSpaceOnUse" />
  </defs>
  <sodipodi:namedview
     pagecolor="#ffffff"
     bordercolor="#666666"
     borderopacity="1"
     objecttolerance="10"
     gridtolerance="10"
     guidetolerance="10"
     inkscape:pageopacity="0"
     inkscape:pageshadow="2"
     inkscape:window-width="1920"
     inkscape:window-height="1017"
     id="namedview60"
     showgrid="false"
     inkscape:zoom="3.1304207"
     inkscape:cx="40.801608"
     inkscape:cy="-6.8214943"
     inkscape:window-x="-8"
     inkscape:window-y="-8"
     inkscape:window-maximized="1"
     inkscape:current-layer="text907"
     inkscape:document-rotation="0" />
  <path
     fill="#d6e5e5"
     d="m 304.44501,256.7981 c -6.3,-0.5 -12.6,-0.6 -19,-0.4 0.3,7.3 0.9,14.5 1.3,21.8 5.2,-0.2 10.5,-0.5 15.7,-0.9 1.7,-0.1 3,0.5 3.9,1.4 -0.4,-7.3 -1,-14.6 -1.9,-21.9 z m 3.6,52 c -0.5,-7.8 -0.8,-15.6 -1.3,-23.5 -0.7,1 -1.9,1.8 -3.5,1.9 -5.4,0.4 -10.8,0.7 -16.2,1 0.1,7.3 -0.3,15 -3.5,21.3 8.2,-0.3 16.3,-0.6 24.5,-0.7 z m -31.3,-30.3 c -0.4,-7.2 -1,-14.5 -1.3,-21.7 -7.1,0.2 -15.7,0.4 -21.6,3.7 0,0.1 0,0.2 0,0.3 v 17.9 c 7.6,0 15.3,0 22.9,-0.2 z m -69,-118.7 c -4.2,-10.6 -15.8,-14.5 -26.4,-12.5 -12.1,2.2 -21.3,11.3 -23.5,23.4 -0.2,1.1 -0.7,2 -1.3,2.6 0.3,6.1 1.5,12.7 6.3,16.7 6.5,5.3 16.8,5.8 24.8,4.4 8,-1.4 15.7,-5.6 19.2,-13.2 2.9,-6.6 3.6,-14.6 0.9,-21.4 z m -97.6,145.3 c -0.1,3.7 -0.2,7.5 -0.6,11.2 -0.1,1.3 -0.4,2.9 -0.9,4.3 6,0.8 18.1,2.3 20.6,-3 2.3,-4.9 2.8,-10.6 2.7,-16.2 -6.5,3.3 -14.5,3.7 -21.8,3.7 z m 19.8,-38.9 c -0.2,0 -0.4,0 -0.6,0 -3.5,0 -7,-0.1 -10.5,0.3 -2.6,0.3 -5,1.2 -7.6,1.2 h -1.4 c 0,0.2 0,0.4 0,0.6 0,8.9 0.3,17.9 0.4,26.8 6.5,0.1 13.7,-0.1 18.9,-3.6 0.8,-0.5 1.6,-0.8 2.4,-0.9 -0.6,-8 -1.6,-16.2 -1.6,-24.4 z m 237.7,-112.3 c -16.2,-6.9 -29.1,-20.8 -41.8,-32.6 -15.8,-14.7 -34.3,-26.100001 -52.2,-38.100001 -18.3,-12.2 -35.6,-25.6 -52.1,-40.2 -13.8,-12.3 -28,-25.7 -45.5,-32.7 -0.1,0.2 -0.1,0.3 -0.2,0.5 0.2,12.4 1.3,24.8 3.8,36.9 1.1,-0.1 2.3,0.3 3.5,1.2 27.2,23.8 59.3,41 87.1,64.000001 15.5,12.9 30.5,26.3 46.2,39 12.1,9.8 22.9,21.6 36.4,29.5 3,-3.5 5.6,-7.3 8.1,-11 1.9,-2.8 3.7,-5.7 5.2,-8.7 0.5,-1 1,-2 1.3,-3 0,0 0,0 0,0 -0.9,-1.6 -0.7,-3.4 0.2,-4.8 z m -267.700003,115.2 c 0,-0.4 0,-0.8 0.100003,-1.2 -0.800003,0 -1.600003,0.1 -2.300003,0.1 -4.4,0.2 -9.2,0.2 -13.4,1.3 -2.1,0.6 -2.7,0.6 -3.2,3.1 -1.7,6.9 -1.1,14.4 -0.3,21.5 6.5,0.2 13.1,0.7 19.600003,1.1 v -0.8 c -0.2,-8.4 -0.500003,-16.7 -0.500003,-25.1 z m -18,34.7 c 0.6,4.3 1.3,8.7 1.9,13 4.9,0.7 9.7,1.6 14.6,2.4 0,-1.1 0.3,-2.2 1.1,-3 0.1,-0.4 0.1,-0.8 0.2,-1.2 0.2,-1.8 0.300003,-3.6 0.400003,-5.5 0.1,-1.6 0.1,-3.1 0.1,-4.7 -6.100003,-0.3 -12.200003,-0.8 -18.300003,-1 z"
     id="path38" />
  <path
     fill="#ef4823"
     d="m 345.84501,189.5981 c 0,-0.2 0,-0.5 0,-0.7 -12.7,-8 -23.2,-19 -34.8,-28.4 -15.6,-12.6 -30.5,-25.9 -45.9,-38.7 -26.9,-22.300001 -57.7,-39.300001 -84.4,-61.700001 -5.5,7.5 -11.7,14.3 -18.2,20.9 -7.4,7.5 -14.6,15.5 -22.3,22.700001 -8.4,7.8 -16,16.3 -23.7,24.8 -7.2,7.9 -15.4,15.1 -22.400003,23.1 -11.9,13.5 -24.4,29.8 -40.3,39.1 0.6,1.9 0.2,4 -1.7,5.6 1.4,-1.2 0.9,-1.5 0.7,0.1 -0.1,0.9 -0.2,1.8 -0.1,2.8 0.1,2.5 0.2,4.9 0.5,7.3 0.6,5.2 1.4,10.4 2,15.6 0.8,6.2 0.6,12.3 0.9,18.5 0.3,8.5 0.8,17 1.6,25.4 0.8,9.6 1.6,19.3 2.3,29 0.6,1.1 0.8,2.4 0.3,3.7 1.8,24.7 3,49.4 3.2,74.1 0,0.1 0,0.2 0,0.4 0.2,0 0.4,0 0.6,0 0.6,0 1.1,0.1 1.6,0.2 0.4,-0.1 0.9,-0.2 1.4,-0.2 14.9,0.1 29.8,1.5 44.700003,0.2 7.4,-0.7 14.7,-1.2 22.1,-2.2 3.7,-0.5 7.3,-1 11,-1.2 1.2,0 8.6,0.7 8.8,0.4 0.5,-0.5 1,-0.8 1.6,-1.1 -0.8,-5.9 -1.7,-11.7 -2.4,-17.6 -1.9,-14.1 -1.9,-28.9 -1.9,-43.1 0,-14.7 0.6,-29.4 3.1,-43.9 0.4,-2.3 2.3,-3.7 4.5,-4 5.6,-0.8 11.2,-1.2 16.8,-1.4 4.7,-0.1 9.7,0.5 14.4,-0.2 6.3,-0.9 12.4,-3.4 18.8,-3.7 18.9,-1 18.1,25.6 18.4,38.7 0.1,6.8 -0.7,13.8 0.1,20.6 0.7,5.5 1.3,11.1 1.9,16.6 1.3,12 2.5,24 3.5,36 0.3,0 0.6,0 0.9,0 11.8,0.9 23.5,-2.6 35,-4.5 8.4,-1.4 16.5,-1.7 24.9,-1.1 7.3,0.5 14.7,1 22.1,0.9 3.6,-0.1 11.7,0.3 13.8,-2.6 1.6,-2.4 4,-2.3 5.9,-1.1 0.2,-0.1 0.5,-0.2 0.7,-0.3 1.7,-0.5 3.3,-0.8 5,-1.1 2.8,-4.6 2.5,-10.2 2.3,-15.5 -0.2,-6.2 0.5,-12.2 1,-18.4 1.3,-15 1.8,-29.9 2.2,-44.9 0.7,-29.7 -0.4,-59.4 -0.5,-89.1 z m -209.2,135.1 c -5.4,7.8 -19.3,6.7 -27.5,5.9 -10.300003,-0.9 -20.400003,-3.2 -30.700003,-4.5 -2.3,-0.3 -3.8,-2.4 -4,-4.5 -1.2,-9.2 -2.9,-18.3 -3.7,-27.6 -0.8,-8.5 -2,-19 1.7,-27.1 3.8,-8.4 14,-8.4 22,-8.8 5.1,-0.3 10.100003,-0.4 15.200003,-0.4 2.9,0 5.6,-0.9 8.5,-1.2 3.5,-0.3 7,-0.3 10.5,-0.3 3.2,0 5,2.4 5.2,4.9 2.8,-0.8 6.1,0.5 6.2,4.2 0.1,10.5 1.7,21 1.9,31.5 0,9.2 0.1,20 -5.3,27.9 z m 46.3,-119.9 c -9.5,0.2 -21.4,-1.2 -28.2,-8.7 -6.6,-7.3 -8.3,-16.5 -8.4,-26 0,-2 0.9,-3.4 2.2,-4.3 0.7,-2.7 1.6,-5.3 2.8,-7.7 7.2,-14 22.4,-22.2 38.1,-21.2 15.7,1 28.3,12.5 29.7,28.4 2,22.1 -14.4,39.1 -36.2,39.5 z m 130.8,113.9 c -19.5,0 -39,1.5 -58.5,1.5 -0.7,0 -1.3,-0.1 -1.8,-0.3 -1.9,4.4 -9.6,4.4 -9.6,-1.3 v -31.6 c -1.8,-2 -1.8,-5.4 0,-7.1 v -18.3 c 0,-1.7 0.7,-2.9 1.7,-3.8 -0.6,-1.8 -0.1,-3.9 2,-5.2 8.4,-5.2 20.3,-5.4 29.9,-5.9 10.7,-0.5 21.7,-0.7 32.3,0.6 2.3,0.3 3.7,2.4 4,4.5 2.8,20.4 3.1,41 4.5,61.5 0.3,2.6 -1.7,5.4 -4.5,5.4 z"
     id="path40" />
  <path
     fill="#d6e5e5"
     d="m 277.24501,288.4981 c -7.8,0.2 -15.6,0.2 -23.4,0.2 v 21.6 c 0.2,0 0.4,0 0.6,0 6.6,0 13.2,-0.2 19.8,-0.4 -0.7,-1.2 -0.8,-2.7 0.1,-4.3 2.6,-4.9 3,-11.1 2.9,-17.1 z"
     id="path42" />
  <path
     fill="#3ab37c"
     d="m 50.345007,305.1981 c -1.1,-0.9 -1.8,-2.1 -1.7,-3.6 -4.8,0.7 -9.1,3.9 -12.2,7.8 -3.6,4.7 -7,12.2 -1.9,17 3.8,3.6 0.6,9.1 -4.3,8.7 -8.7,-0.8 -17.7,3.7 -19.9,12.7 -2.2999997,9.4 1.5,17.9 9.2,23.6 2.9,2.2 1.8,7.5 -1.6,8.5 -4.3,1.2 -7.8,3.3 -7.3,8.1 0.5,5.1 3.4,9.8 6.5,13.7 5.2,6.4 17.4,17.2 26.3,11.4 0.7,-0.4 1.4,-0.7 2,-0.8 -1.5,-9.5 -3.1,-19.1 -0.1,-28.2 1.1,-3.4 3,-7.2 6.9,-8.1 0.1,0 0.1,0 0.2,0 0.2,-0.2 0.5,-0.3 0.8,-0.5 0,-23.5 -1.2,-46.9 -2.9,-70.3 z"
     id="path44" />
  <path
     fill="#c56528"
     d="m 156.64501,381.7981 c -0.1,-0.7 -0.1,-1.4 -0.2,-2.1 -4.5,1.3 -9.7,0.1 -14.6,0.6 -8,0.8 -15.9,2.5 -23.9,2.8 -16.8,0.7 -33.400003,0.2 -50.200003,0.1 -0.6,0 -1.2,-0.1 -1.7,-0.3 0,0 0,0 0,0 -2.1,0.9 -4.9,1.2 -7.4,1.6 -0.9,0.7 -2,1.2 -3.1,1.3 -0.1,0.7 -0.8,2.1 -0.9,2.3 -1,3.7 -1.1,7.5 -0.7,11.3 0.8,6.5 2.2,12.9 2.8,19.4 0.4,4.1 0.6,8.3 3.4,11.2 25.8,-0.1 51.500003,-0.9 77.300003,-1.7 0.4,-5.2 1.8,-10.4 6.8,-13.3 3.1,-1.7 6.3,-3 9.6,-3.8 -0.5,-1.1 -0.5,-2.5 0.5,-4 4.6,-6.6 3,-17.7 2.3,-25.4 z m 192.3,-15.1 c -3.4,0.1 -6.7,0.3 -9.9,1.2 -1.3,0.4 -2.5,0.3 -3.5,-0.2 -3.9,3.9 -11.1,4.4 -16.2,4.6 -8.4,0.4 -16.7,-0.1 -25.1,-0.7 -9.2,-0.6 -17.9,-0.2 -27,1.4 -11.4,2.1 -22.6,4.7 -34.2,4.1 0.1,1.6 0.2,3.3 0.3,4.9 0.4,6.3 0.9,12.7 0.6,19 -0.1,1.8 -0.2,3.8 -0.6,5.6 7.4,-0.4 14.8,-0.8 22.2,-1.1 5.8,-0.2 11.5,-0.5 15.8,4 4.2,4.4 3.9,10.9 4.7,16.5 8.5,-0.1 17,-0.3 25.4,-0.5 9.6,-0.2 19.3,-0.7 28.8,-2.4 6.9,-1.2 14.1,-2.9 19.9,-6.9 0.1,-16.4 -1,-32.9 -1.2,-49.5 z"
     id="path46" />
  <path
     fill="#3ab37c"
     d="m 407.34501,384.7981 c -0.2,-4.6 -0.8,-10.8 -6.8,-9.4 -4.5,1.1 -9.2,-4.1 -5.4,-8 5.9,-6.2 11.1,-15.3 5.9,-23.6 -4.1,-6.5 -12.5,-3.1 -18.5,-1.4 -4.8,1.4 -8.6,-4 -5.4,-8 4.7,-5.8 4.5,-16.6 0.6,-22.8 -1.7,-2.6 -4.8,-6 -8.4,-4.9 -4.4,1.3 -11.1,4.1 -10.4,9.6 0.4,3.4 -2.1,5.2 -4.7,5.2 -0.2,2.6 -0.4,5.2 -0.6,7.8 -0.8,8.5 1,18.8 -1.5,27.4 0.5,0 1,0 1.5,0 2.6,0 5.4,1.7 5.4,4.6 0,12.9 0.7,25.7 1.1,38.6 0.1,2.8 0.2,5.6 0.2,8.4 0.6,-0.3 1.4,-0.5 2.3,-0.5 14.6,0 28.9,-0.7 40.5,-10.6 3.7,-3.2 4.5,-7.5 4.2,-12.4 z"
     id="path48" />
  <path
     fill="#d6e5e5"
     d="m 170.64501,52.898099 c -2.2,-10.3 -3.7,-20.6 -4.3,-31 -3.5,3.1 -7.2,6.2 -10.4,9.7 -15.2,16.8 -30.5,33.5 -45.7,50.3 -15.400003,17.2 -31.500003,33.700001 -47.000003,50.800001 -12.2,13.4 -27.9,23.6 -38.1,38.8 2.3,2.3 4.7,4.5 7.1,6.6 3.4,2.8 6.9,4.7 10.6,7 0.1,0 0.1,0.1 0.2,0.1 0.2,-0.1 0.4,-0.2 0.6,-0.3 3.7,-1.9 7.1,-3.9 10.4,-6.5 14.9,-11.8 26.7,-27.3 40.1,-40.7 7.700003,-7.7 14.800003,-15.8 22.200003,-23.8 6.8,-7.4 14.2,-14.300001 21.1,-21.600001 11.6,-12.3 24.2,-23.6 34.5,-37.1 -0.6,-0.5 -1.1,-1.2 -1.3,-2.3 z m 95.2,368.800001 c -0.4,-3 -1.1,-5.8 -3.3,-6 -4.4,-0.5 -8.9,0.1 -13.3,0.4 -14.4,0.8 -28.9,1.5 -43.3,2.5 -11.9,0.8 -23.7,1 -35.7,1.3 -5.4,0.2 -11.3,0.2 -16.5,2 -4.1,1.4 -5.7,3.2 -6.2,6.4 27,-0.7 54,-0.7 81,-1.3 11.7,-0.3 23.3,-0.4 35,-0.6 -0.2,-1.9 0.5,-3.9 2.3,-4.7 z m -42,-17.6 c 0.7,-1.2 1.9,-2.1 3.6,-2.3 -2.4,0.3 -3.2,1.2 -3.6,2.3 z"
     id="path50" />
  <path
     fill="#febf10"
     d="m 221.54501,358.1981 c -1.3,-14.1 -2.7,-28.2 -4.4,-42.3 -1.8,-15.3 2.1,-31.6 -3.1,-46.5 -0.9,-2.6 -1.3,-4.1 -3.8,-4 -4.5,0.2 -8.8,1.4 -13.2,2.4 -11,2.6 -22.5,1.6 -33.8,2.5 -2.2,14.9 -2.6,29.9 -2.3,44.9 0.3,13.1 0.4,26.4 2.3,39.4 1.5,10.4 3.2,20.9 3.7,31.4 0.4,7.5 1,17 -2.5,24 6.4,-0.4 12.8,-0.3 19.2,-0.3 7.2,0 14.4,-0.8 21.6,-1.2 6,-0.4 12,-0.8 17.9,-1.2 -0.1,-1.1 0.2,-2.2 0.7,-3.1 0,-0.1 0,-0.2 0.1,-0.3 0.1,-0.3 0.2,-2.1 0.2,-1.7 0.5,-14.6 -1.3,-29.5 -2.6,-44 z m -46.4,-7.3 c -2.5,1.7 -5.2,0.7 -6.9,-1.3 -2.5,-2.9 -2.3,-7.8 -2.3,-11.4 0,-2.7 1.7,-5.2 4.6,-5.4 2.6,-0.2 5.4,1.9 5.4,4.6 0,1.5 0,3 0.1,4.6 0,0.4 0.1,0.9 0.2,1.3 0,0.1 0,0.1 0.1,0.3 0,0.1 0,0.1 0.1,0.2 0.1,0.1 0.1,0.2 0.2,0.3 1.7,1.9 0.6,5.4 -1.5,6.8 z"
     id="path52" />
  <path
     fill="#010101"
     d="m 415.94501,375.4981 c -1.3,-4.5 -4.1,-7.4 -7.6,-8.9 1.7,-2.9 3.1,-5.9 4.1,-9.3 1.9,-6.7 -0.1,-13.1 -3.2,-19.1 -4,-7.8 -11.9,-8.7 -19.7,-7.6 2.3,-9.5 0.3,-20.5 -5.8,-27.5 -5,-5.7 -11.9,-7.5 -19.1,-5.4 -3.3,1 -6.7,2.7 -9.4,5.1 0.3,-6.3 0.5,-12.6 0.8,-18.9 1.2,-30.5 0,-61.1 -0.2,-91.6 0.6,-0.3 1.2,-0.7 1.8,-1.2 5.4,-5.5 9.8,-12.3 14,-18.8 3,-4.7 9.1,-14 4.1,-19.3 1.8,-2.3 1.9,-5.9 -1.6,-7.2 -17.3,-6.6 -30.5,-21.7 -43.8,-34 -15.8,-14.600001 -34.8,-25.800001 -52.6,-37.800001 -18.2,-12.3 -35.3,-25.9 -51.7,-40.5 -14.5,-12.9 -29.8,-26.8000005 -48.3,-33.20000048 -2.1,-0.7 -4.1,-0.1 -5.4,1.09999998 -4,-1.09999998 -7,3.2 -6,6.5 0,0 0,0.1 0,0.1 -0.1,0.1 -0.1,0.2 -0.2,0.3 -0.9,1.1 -1.9,2.2000005 -3,3.2000005 -1.9,1.9 -4,3.6 -6.2,5.2 -7.5,5.5 -13.4,14.2 -19.8,20.9 -14.8,15.6 -28.9,31.8 -43.200003,47.8 -6.8,7.6 -13.9,15.000001 -20.9,22.400001 -7.3,7.7 -14.2,15.8 -21.8,23.2 -12.6,12.2 -26.7,22.8 -36.1,38 -0.9,1.5 -0.9,3 -0.3,4.1 0,1.2 0.5,2.3 1.5,3.3 6.2,6.2 12.6,12.3 20.4,16.4 1.9,1 3.2,2.6 5.4,3.1 0.2,0.1 0.5,0.1 0.7,0.1 -1,6.7 1,15.1 1.8,20.5 2,14.3 1.7,28.7 2.7,43.2 0.8,10.5 1.6,21.1 2.3,31.6 -15.8,0.7 -30.9,19.4 -26.5,34.3 -9.9,1.8 -18.1999997,7.9 -21.6999997,18.4 -3.4,10.4 -0.59999996,21.6 6.3,29.7 -21.2000003,15.1 14.2999997,61.5 39.5999997,48.8 0.5,4.7 1.7,9.4 4.5,13.2 4.6,6.1 12.2,4.4 19,4.4 16.3,-0.1 32.600003,-0.6 49.000003,-1.1 61.3,-1.8 122.7,-2 184,-3.5 16.6,-0.4 34.6,-1.5 49.6,-9.3 3.1,-1.6 7.2,-4 7.2,-7.9 0,-0.5 0,-1 0,-1.5 0.8,0.5 1.8,0.9 2.9,0.9 18.2,0 40.1,-2 51.2,-18.7 4,-6.4 3.2,-16.5 1.2,-23.5 z m -239.8,-365.100001 c 17.4,7 31.6,20.3 45.5,32.7 16.4,14.6 33.8,28 52.1,40.2 17.9,11.9 36.4,23.400001 52.2,38.100001 12.7,11.8 25.6,25.7 41.8,32.6 -0.9,1.4 -1.1,3.2 -0.2,4.8 0,0 0,0 0,0 -0.2,1.1 -0.8,2.1 -1.3,3 -1.5,3 -3.3,5.9 -5.2,8.7 -2.5,3.7 -5.2,7.5 -8.1,11 -13.5,-7.9 -24.3,-19.7 -36.4,-29.5 -15.7,-12.6 -30.7,-26.1 -46.2,-39 -27.8,-23.000001 -59.9,-40.200001 -87.1,-64.000001 -1.1,-1 -2.3,-1.3 -3.5,-1.2 -2.5,-12.2 -3.7,-24.5 -3.8,-36.9 0,-0.2 0.1,-0.4 0.2,-0.5 z m 4.6,49.7 c 26.8,22.4 57.5,39.4 84.4,61.700001 15.4,12.8 30.3,26.1 45.9,38.7 11.7,9.4 22.1,20.5 34.8,28.4 0,0.2 0,0.4 0,0.7 0,29.7 1.2,59.4 0.4,89.1 -0.4,15 -0.9,29.9 -2.2,44.9 -0.5,6.2 -1.2,12.2 -1,18.4 0.2,5.3 0.5,10.8 -2.3,15.5 -1.7,0.3 -3.4,0.6 -5,1.1 -0.3,0.1 -0.5,0.2 -0.7,0.3 -1.8,-1.2 -4.2,-1.2 -5.9,1.1 -2.1,3 -10.2,2.5 -13.8,2.6 -7.4,0.2 -14.7,-0.4 -22.1,-0.9 -8.5,-0.6 -16.5,-0.2 -24.9,1.1 -11.5,1.9 -23.2,5.4 -35,4.5 -0.3,0 -0.6,0 -0.9,0 -1,-12 -2.2,-24 -3.5,-36 -0.6,-5.6 -1.2,-11.1 -1.9,-16.6 -0.8,-6.7 0,-13.8 -0.1,-20.6 -0.3,-13.1 0.5,-39.7 -18.4,-38.7 -6.4,0.3 -12.5,2.7 -18.8,3.7 -4.6,0.7 -9.7,0.1 -14.4,0.2 -5.6,0.1 -11.2,0.6 -16.8,1.4 -2.2,0.3 -4.1,1.8 -4.5,4 -2.5,14.5 -3.1,29.2 -3.1,43.9 0,14.2 0,29 1.9,43.1 0.8,5.9 1.7,11.7 2.4,17.6 -0.6,0.2 -1.1,0.6 -1.6,1.1 -0.3,0.3 -7.7,-0.4 -8.8,-0.4 -3.7,0.1 -7.4,0.7 -11,1.2 -7.4,1 -14.7,1.5 -22.1,2.2 -14.800003,1.4 -29.800003,-0.1 -44.700003,-0.2 -0.5,0 -1,0.1 -1.4,0.2 -0.5,-0.1 -1,-0.2 -1.6,-0.2 -0.2,0 -0.4,0 -0.6,0 0,-0.1 0,-0.2 0,-0.4 -0.2,-24.6 -1.4,-49.4 -3.2,-74.1 0.5,-1.3 0.3,-2.6 -0.3,-3.7 -0.7,-9.7 -1.5,-19.4 -2.3,-29 -0.7,-8.5 -1.3,-16.9 -1.6,-25.4 -0.2,-6.2 -0.1,-12.3 -0.9,-18.5 -0.7,-5.2 -1.5,-10.4 -2,-15.6 -0.3,-2.4 -0.4,-4.9 -0.5,-7.3 0,-0.9 0,-1.9 0.1,-2.8 0.2,-1.6 0.7,-1.3 -0.7,-0.1 1.9,-1.6 2.2,-3.7 1.7,-5.6 15.9,-9.4 28.3,-25.6 40.3,-39.1 7.100003,-8 15.200003,-15.2 22.400003,-23.1 7.7,-8.5 15.4,-17 23.7,-24.8 7.7,-7.200001 14.9,-15.200001 22.3,-22.700001 6.7,-6.6 12.9,-13.4 18.3,-20.9 z m -13.8,326.000001 c -0.5,-10.5 -2.2,-21 -3.7,-31.4 -1.9,-13 -2,-26.3 -2.3,-39.4 -0.3,-15 0,-30.1 2.3,-44.9 11.3,-1 22.8,0 33.8,-2.5 4.4,-1 8.7,-2.1 13.2,-2.4 2.5,-0.1 2.9,1.4 3.8,4 5.2,14.9 1.3,31.2 3.1,46.5 1.7,14.1 3.1,28.2 4.4,42.3 1.3,14.5 3.2,29.4 2.5,44 0,-0.4 -0.1,1.4 -0.2,1.7 0,0.1 0,0.2 -0.1,0.3 -0.5,1 -0.8,2.1 -0.7,3.1 -6,0.4 -12,0.8 -17.9,1.2 -7.2,0.5 -14.3,1.2 -21.6,1.2 -6.4,0 -12.8,-0.1 -19.2,0.3 3.6,-7.1 3,-16.6 2.6,-24 z m 60.5,15.7 c -1.7,0.3 -2.9,1.2 -3.6,2.3 0.4,-1.1 1.2,-2 3.6,-2.3 z m -183.700003,-216.9 c -0.2,0.1 -0.4,0.2 -0.6,0.3 -0.1,0 -0.1,-0.1 -0.2,-0.1 -3.6,-2.3 -7.2,-4.2 -10.6,-7 -2.5,-2.1 -4.8,-4.3 -7.1,-6.6 10.2,-15.2 25.9,-25.4 38.1,-38.8 15.5,-17.1 31.6,-33.600001 47.000003,-50.800001 15.2,-16.8 30.4,-33.6 45.7,-50.3 3.2,-3.5 6.8,-6.6 10.4,-9.7 0.7,10.4 2.1,20.7 4.3,31 0.2,1 0.7,1.8 1.3,2.4 -10.3,13.4 -22.8,24.8 -34.5,37.1 -6.9,7.3 -14.3,14.200001 -21.1,21.600001 -7.4,8 -14.5,16.1 -22.200003,23.8 -13.4,13.4 -25.1,28.9 -40.1,40.7 -3.3,2.5 -6.8,4.5 -10.4,6.4 z m 8.9,191 c -0.1,0 -0.1,0 -0.2,0 -3.8,0.9 -5.8,4.8 -6.9,8.1 -3,9.1 -1.5,18.8 0.1,28.2 -0.7,0.1 -1.3,0.4 -2,0.8 -8.9,5.8 -21.1,-5 -26.3,-11.4 -3.2,-3.9 -6,-8.6 -6.5,-13.7 -0.5,-4.8 3,-6.9 7.3,-8.1 3.5,-0.9 4.6,-6.3 1.6,-8.5 -7.6,-5.7 -11.4999997,-14.2 -9.2,-23.6 2.2,-9 11.2,-13.5 19.9,-12.7 4.9,0.4 8,-5 4.3,-8.7 -5.1,-4.9 -1.8,-12.4 1.9,-17 3,-3.9 7.4,-7.1 12.2,-7.8 -0.1,1.4 0.6,2.7 1.7,3.6 1.6,23.4 2.9,46.8 3,70.2 -0.4,0.3 -0.7,0.4 -0.9,0.6 z m 84.900003,52.7 c -25.8,0.8 -51.500003,1.6 -77.300003,1.7 -2.8,-2.9 -3.1,-7.2 -3.4,-11.2 -0.6,-6.5 -2,-12.9 -2.8,-19.4 -0.4,-3.8 -0.3,-7.6 0.7,-11.3 0.1,-0.3 0.8,-1.6 0.9,-2.3 1.2,-0.1 2.3,-0.6 3.1,-1.3 2.4,-0.5 5.2,-0.8 7.4,-1.6 0,0 0,0 0,0 0.5,0.2 1.1,0.3 1.7,0.3 16.8,0.1 33.400003,0.6 50.200003,-0.1 8,-0.3 16,-2 23.9,-2.8 4.9,-0.5 10.1,0.7 14.6,-0.6 0.1,0.7 0.1,1.4 0.2,2.1 0.7,7.7 2.3,18.8 -2.2,25.7 -1,1.5 -1,2.9 -0.5,4 -3.3,0.8 -6.5,2 -9.6,3.8 -5.2,2.5 -6.6,7.7 -6.9,13 z m 126,-2.2 c -11.7,0.2 -23.3,0.4 -35,0.6 -27,0.6 -54,0.6 -81,1.3 0.5,-3.2 2,-5 6.2,-6.4 5.2,-1.8 11,-1.8 16.5,-2 12,-0.4 23.8,-0.5 35.7,-1.3 14.4,-1 28.9,-1.6 43.3,-2.5 4.4,-0.3 8.9,-0.8 13.3,-0.4 2.1,0.2 2.9,3 3.3,6 -1.8,0.8 -2.5,2.8 -2.3,4.7 z m 66.9,-3.2 c -9.5,1.7 -19.2,2.2 -28.8,2.4 -8.5,0.2 -17,0.4 -25.4,0.5 -0.8,-5.7 -0.5,-12.2 -4.7,-16.5 -4.3,-4.5 -10,-4.2 -15.8,-4 -7.4,0.3 -14.8,0.6 -22.2,1.1 0.5,-1.8 0.6,-3.8 0.6,-5.6 0.3,-6.3 -0.2,-12.7 -0.6,-19 -0.1,-1.6 -0.2,-3.3 -0.3,-4.9 11.6,0.5 22.8,-2.1 34.2,-4.1 9.1,-1.6 17.8,-2 27,-1.4 8.3,0.6 16.7,1.1 25.1,0.7 5,-0.2 12.3,-0.8 16.2,-4.6 1,0.4 2.2,0.6 3.5,0.2 3.2,-0.9 6.6,-1.2 9.9,-1.2 0.2,16.5 1.3,33 1.4,49.5 -6,4 -13.3,5.7 -20.1,6.9 z m 72.6,-26 c -11.7,9.9 -25.9,10.6 -40.5,10.6 -0.9,0 -1.7,0.2 -2.3,0.5 -0.1,-2.8 -0.1,-5.6 -0.2,-8.4 -0.4,-12.9 -1.1,-25.7 -1.1,-38.6 0,-2.9 -2.8,-4.6 -5.4,-4.6 -0.5,0 -1,0 -1.5,0 2.5,-8.5 0.7,-18.9 1.5,-27.4 0.2,-2.6 0.4,-5.2 0.6,-7.8 2.6,0 5.1,-1.8 4.7,-5.2 -0.7,-5.5 6,-8.3 10.4,-9.6 3.6,-1 6.7,2.3 8.4,4.9 3.9,6.2 4.1,17 -0.6,22.8 -3.2,4 0.6,9.4 5.4,8 6,-1.7 14.4,-5.1 18.5,1.4 5.2,8.3 0.1,17.4 -5.9,23.6 -3.8,3.9 0.9,9.1 5.4,8 6,-1.4 6.6,4.8 6.8,9.4 0.4,4.9 -0.4,9.2 -4.2,12.4 z"
     id="path54" />
  <path
     fill="#010101"
     d="m 219.14501,165.3981 c -1.4,-15.9 -13.9,-27.5 -29.7,-28.4 -15.7,-1 -30.9,7.2 -38.1,21.2 -1.2,2.4 -2.2,5.1 -2.8,7.7 -1.3,0.9 -2.2,2.3 -2.2,4.3 0.1,9.5 1.8,18.8 8.4,26 6.8,7.5 18.7,8.9 28.2,8.7 21.8,-0.5 38.2,-17.5 36.2,-39.5 z m -12.4,15.7 c -3.5,7.6 -11.2,11.9 -19.2,13.2 -8,1.4 -18.2,0.9 -24.8,-4.4 -4.8,-3.9 -6,-10.6 -6.3,-16.7 0.6,-0.6 1.1,-1.5 1.3,-2.6 2.2,-12.1 11.4,-21.2 23.5,-23.4 10.7,-2 22.2,1.9 26.4,12.5 2.8,6.9 2.1,14.9 -0.9,21.4 z m 111.6,132.3 c -1.4,-20.5 -1.7,-41.1 -4.5,-61.5 -0.3,-2.1 -1.7,-4.3 -4,-4.5 -10.7,-1.3 -21.6,-1.1 -32.3,-0.6 -9.6,0.4 -21.5,0.7 -29.9,5.9 -2.1,1.3 -2.6,3.4 -2,5.2 -1,0.9 -1.7,2.2 -1.7,3.8 v 18.3 c -1.8,1.7 -1.8,5.1 0,7.1 v 31.6 c 0,5.7 7.7,5.7 9.6,1.3 0.5,0.2 1.1,0.3 1.8,0.3 19.5,0 39,-1.5 58.5,-1.5 2.7,-0.1 4.7,-2.9 4.5,-5.4 z m -42.9,-56.6 c 0.2,7.2 0.9,14.5 1.3,21.7 -7.6,0.2 -15.3,0.2 -22.9,0.2 v -17.9 c 0,-0.1 0,-0.2 0,-0.3 5.9,-3.3 14.5,-3.5 21.6,-3.7 z m -1.1,48.7 c -0.9,1.6 -0.8,3.1 -0.1,4.3 -6.6,0.2 -13.2,0.4 -19.8,0.4 -0.2,0 -0.4,0 -0.6,0 v -21.6 c 7.8,0 15.6,-0.1 23.4,-0.2 0.1,6.1 -0.3,12.3 -2.9,17.1 z m 30.1,-48.7 c 0.9,7.3 1.5,14.6 1.9,21.9 -0.9,-1 -2.2,-1.6 -3.9,-1.4 -5.2,0.4 -10.5,0.7 -15.7,0.9 -0.3,-7.3 -1,-14.5 -1.3,-21.8 6.3,-0.2 12.7,-0.1 19,0.4 z m -20.9,52.7 c 3.2,-6.3 3.5,-14.1 3.5,-21.3 5.4,-0.2 10.8,-0.5 16.2,-1 1.6,-0.1 2.8,-0.9 3.5,-1.9 0.4,7.8 0.8,15.6 1.3,23.5 -8.2,0.1 -16.3,0.4 -24.5,0.7 z m -141.8,-12.6 c -0.2,-10.5 -1.8,-21 -1.9,-31.5 0,-3.7 -3.4,-5 -6.2,-4.2 -0.2,-2.5 -2,-4.9 -5.2,-4.9 -3.5,0 -7,0 -10.5,0.3 -2.9,0.2 -5.6,1.2 -8.5,1.2 -5.1,0 -10.100003,0.1 -15.200003,0.4 -8,0.4 -18.2,0.4 -22,8.8 -3.7,8.1 -2.4,18.5 -1.7,27.1 0.8,9.2 2.5,18.4 3.7,27.6 0.3,2.1 1.8,4.3 4,4.5 10.3,1.2 20.4,3.5 30.700003,4.5 8.2,0.7 22.1,1.9 27.5,-5.9 5.6,-8 5.5,-18.8 5.3,-27.9 z m -30.5,-29.2 c 2.6,0 5,-0.9 7.6,-1.2 3.5,-0.4 7,-0.3 10.5,-0.3 0.2,0 0.4,0 0.6,0 0.1,8.2 1.1,16.4 1.6,24.5 -0.8,0.1 -1.6,0.3 -2.4,0.9 -5.2,3.4 -12.4,3.7 -18.9,3.6 0,-8.9 -0.3,-17.9 -0.4,-26.8 0,-0.2 0,-0.4 0,-0.6 z m -11.2,41.8 c -0.100003,1.8 -0.200003,3.7 -0.400003,5.5 0,0.4 -0.1,0.8 -0.2,1.2 -0.8,0.8 -1.2,1.9 -1.1,3 -4.9,-0.8 -9.7,-1.7 -14.6,-2.4 -0.6,-4.3 -1.3,-8.7 -1.9,-13 6.1,0.2 12.2,0.7 18.300003,1 0,1.5 0,3.1 -0.1,4.7 z m 0.2,-14.6 c -6.500003,-0.3 -13.100003,-0.9 -19.600003,-1.1 -0.8,-7.1 -1.3,-14.6 0.3,-21.5 0.6,-2.4 1.1,-2.5 3.2,-3.1 4.3,-1.1 9.1,-1.1 13.4,-1.3 0.8,0 1.6,-0.1 2.3,-0.1 -0.1,0.4 -0.1,0.8 -0.1,1.2 0,8.4 0.300003,16.7 0.400003,25.1 v 0.8 z m 29,22.7 c -2.5,5.3 -14.6,3.7 -20.6,3 0.5,-1.5 0.7,-3 0.9,-4.3 0.4,-3.7 0.5,-7.4 0.6,-11.2 7.3,0 15.2,-0.4 21.8,-3.7 0.1,5.6 -0.4,11.3 -2.7,16.2 z m 47.3,26.3 c -0.1,-0.1 -0.2,-0.2 -0.2,-0.3 0,-0.1 0,-0.1 -0.1,-0.2 0,-0.1 -0.1,-0.2 -0.1,-0.3 -0.1,-0.4 -0.1,-0.9 -0.2,-1.3 -0.1,-1.5 -0.1,-3 -0.1,-4.6 0,-2.7 -2.8,-4.8 -5.4,-4.6 -2.9,0.2 -4.6,2.6 -4.6,5.4 0,3.6 -0.2,8.5 2.3,11.4 1.8,2.1 4.5,3 6.9,1.3 2.2,-1.2 3.3,-4.7 1.5,-6.8 z"
     id="path56" />
  <g
     aria-label="Loquei"
     id="text68"
     style="font-style:normal;font-weight:normal;font-size:284.444px;line-height:1.25;font-family:sans-serif;display:inline;opacity:1;fill:#ef4823;fill-opacity:1;stroke:#000000;stroke-width:10.6667;stroke-opacity:1"
     inkscape:label="text68">
    <g
       aria-label="Loquei"
       id="text907"
       style="font-style:normal;font-weight:normal;font-size:284.444px;line-height:1.25;font-family:sans-serif;fill:#000000;fill-opacity:1;stroke:none;stroke-width:113.778">
      <path
         d="m 726.90017,309.44163 v 38.1155 H 595.2026 V 150.43744 h 44.37327 v 159.00419 z"
         style="font-style:normal;font-variant:normal;font-weight:normal;font-stretch:normal;font-size:284.444px;font-family:Ubuntu;-inkscape-font-specification:Ubuntu;stroke-width:5.33333329;stroke:#382b2d;stroke-opacity:1;fill:#fc4a1a;stroke-miterlimit:4;stroke-dasharray:none;fill-opacity:1"
         id="path909" />
      <path
         d="m 892.4465,272.46391 q 0,17.63553 -5.11999,32.42662 -5.11999,14.50664 -14.79109,25.03107 -9.67109,10.23998 -23.32441,15.92886 -13.36886,5.68888 -30.15106,5.68888 -16.49775,0 -30.15106,-5.68888 -13.36887,-5.68888 -23.03997,-15.92886 -9.67109,-10.52443 -15.07553,-25.03107 -5.40444,-14.79109 -5.40444,-32.42662 0,-17.63553 5.40444,-32.14217 5.68888,-14.50664 15.35998,-24.74663 9.95554,-10.23998 23.3244,-15.92886 13.65332,-5.68888 29.58218,-5.68888 16.21331,0 29.58218,5.68888 13.65331,5.68888 23.3244,15.92886 9.6711,10.23999 15.07554,24.74663 5.40443,14.50664 5.40443,32.14217 z m -43.23549,0 q 0,-19.62663 -7.96443,-30.71995 -7.67999,-11.37776 -22.18663,-11.37776 -14.50664,0 -22.47108,11.37776 -7.96443,11.09332 -7.96443,30.71995 0,19.62664 7.96443,31.28884 7.96444,11.37776 22.47108,11.37776 14.50664,0 22.18663,-11.37776 7.96443,-11.6622 7.96443,-31.28884 z"
         style="font-style:normal;font-variant:normal;font-weight:normal;font-stretch:normal;font-size:284.444px;font-family:Ubuntu;-inkscape-font-specification:Ubuntu;stroke-width:5.33333329;fill:#fc4a1a;fill-opacity:1;stroke:#382b2d;stroke-opacity:1;stroke-miterlimit:4;stroke-dasharray:none"
         id="path911" />
      <path
         d="m 961.2815,273.88613 q 0,40.67549 30.15106,40.67549 6.54222,0 12.79994,-1.70666 6.5423,-1.70666 10.5245,-4.26666 v -76.51544 q -3.1289,-0.56888 -7.9645,-0.85333 -4.8355,-0.56889 -10.52439,-0.56889 -17.35108,0 -26.16885,11.94665 -8.81776,11.66221 -8.81776,31.28884 z m -43.23549,-1.13777 q 0,-17.35109 5.11999,-31.57329 5.40444,-14.50664 15.35998,-24.74663 9.95554,-10.52442 24.46218,-16.2133 14.50665,-5.68888 32.99551,-5.68888 7.68003,0 15.92883,0.85333 8.5334,0.56889 16.4978,1.70666 8.2489,1.13778 15.6444,2.84444 7.3955,1.42222 13.0844,3.12889 v 197.11969 h -42.3821 v -56.31991 q -7.1111,3.12888 -14.79112,4.83554 -7.67998,1.70667 -16.49775,1.70667 -31.85773,0 -48.63992,-20.76441 -16.7822,-21.04886 -16.7822,-56.8888 z"
         style="font-style:normal;font-variant:normal;font-weight:normal;font-stretch:normal;font-size:284.444px;font-family:Ubuntu;-inkscape-font-specification:Ubuntu;stroke-width:5.33333329;fill:#fc4a1a;fill-opacity:1;stroke-miterlimit:4;stroke-dasharray:none;stroke:#382b2d;stroke-opacity:1"
         id="path913" />
      <path
         d="m 1224.6761,342.43714 q -10.8089,3.12888 -27.8755,5.68888 -17.0666,2.84444 -35.8399,2.84444 -19.0578,0 -31.8578,-5.12 -12.5155,-5.11999 -19.911,-14.2222 -7.3956,-9.38665 -10.5245,-22.18663 -3.1289,-12.79998 -3.1289,-28.15995 v -83.3421 h 42.3822 v 78.2221 q 0,20.47997 5.4044,29.58218 5.4045,9.10221 20.1956,9.10221 4.5511,0 9.6711,-0.28445 5.1199,-0.56888 9.1022,-1.13777 V 197.93958 h 42.3821 z"
         style="font-style:normal;font-variant:normal;font-weight:normal;font-stretch:normal;font-size:284.444px;font-family:Ubuntu;-inkscape-font-specification:Ubuntu;stroke-width:5.33333329;fill:#fc4a1a;fill-opacity:1;stroke-miterlimit:4;stroke-dasharray:none;stroke:#382b2d;stroke-opacity:1"
         id="path915" />
      <path
         d="m 1257.3868,273.88613 q 0,-19.91108 5.9734,-34.70217 6.2577,-15.07553 16.2133,-25.03107 9.9555,-9.95554 22.7555,-15.07553 13.0844,-5.11999 26.7377,-5.11999 31.8577,0 50.3466,19.62663 18.4889,19.3422 18.4889,57.17325 0,3.69777 -0.2845,8.24887 -0.2844,4.26666 -0.5689,7.67999 h -96.142 q 1.4222,13.08443 12.2311,20.76441 10.8088,7.67999 29.0132,7.67999 11.6622,0 22.7556,-1.99111 11.3777,-2.27555 18.4888,-5.40443 l 5.6889,34.41772 q -3.4133,1.70667 -9.1022,3.41333 -5.6889,1.70666 -12.8,2.84444 -6.8266,1.42222 -14.7911,2.27555 -7.9644,0.85333 -15.9288,0.85333 -20.1956,0 -35.2711,-5.97332 -14.7911,-5.97332 -24.7466,-16.21331 -9.6711,-10.52443 -14.5067,-24.74663 -4.5511,-14.2222 -4.5511,-30.71995 z m 99.5554,-16.21331 q -0.2844,-5.40443 -1.9911,-10.52442 -1.4222,-5.12 -4.8355,-9.10221 -3.1289,-3.98222 -8.2489,-6.54221 -4.8355,-2.56 -12.2311,-2.56 -7.1111,0 -12.2311,2.56 -5.12,2.27555 -8.5333,6.25776 -3.4133,3.98222 -5.4044,9.38666 -1.7067,5.11999 -2.56,10.52442 z"
         style="font-style:normal;font-variant:normal;font-weight:normal;font-stretch:normal;font-size:284.444px;font-family:Ubuntu;-inkscape-font-specification:Ubuntu;stroke-width:5.33333329;fill:#fc4a1a;fill-opacity:1;stroke:#382b2d;stroke-opacity:1;stroke-miterlimit:4;stroke-dasharray:none"
         id="path917" />
      <path
         d="m 1472.9953,347.55713 h -42.3821 V 197.93958 h 42.3821 z m 3.9822,-192.85303 q 0,11.6622 -7.6799,18.48886 -7.3956,6.54221 -17.6356,6.54221 -10.24,0 -17.9199,-6.54221 -7.3956,-6.82666 -7.3956,-18.48886 0,-11.66221 7.3956,-18.20442 7.6799,-6.82666 17.9199,-6.82666 10.24,0 17.6356,6.82666 7.6799,6.54221 7.6799,18.20442 z"
         style="font-style:normal;font-variant:normal;font-weight:normal;font-stretch:normal;font-size:284.444px;font-family:Ubuntu;-inkscape-font-specification:Ubuntu;stroke-width:5.33333329;fill:#fc4a1a;fill-opacity:1;stroke:#382b2d;stroke-opacity:1;stroke-miterlimit:4;stroke-dasharray:none"
         id="path919" />
    </g>
  </g>
</svg>
