<svg version="1.1" xmlns="http://www.w3.org/2000/svg" xmlns:xlink="http://www.w3.org/1999/xlink" x="0px" y="0px" viewBox="0 0 1000 1000" enable-background="new 0 0 1000 1000" xml:space="preserve">
    <metadata> Svg Vector Icons : http://www.onlinewebfonts.com/icon</metadata>
    <g>
        <g transform="translate(0.000000,511.000000) scale(0.100000,-0.100000)">
            <path d="M3611.7,5001.7c-636.4-93.4-1199.1-516-1462-1098.3C1987.6,3547.1,1990,3579,1990,1996.7c0-1420.2,0-1439.9,56.5-1629.1c199-685.5,769.1-1221.2,1432.5-1344c86-17.2,179.4-39.3,206.4-49.2c39.3-14.8,167.1-375.9,675.7-1899.3c344-1036.9,631.5-1874.8,641.3-1865c7.4,9.8,294.9,855.1,636.4,1879.7c518.5,1550.4,631.5,1867.4,673.3,1884.6c29.5,9.8,122.9,31.9,211.3,49.2C7078.7-875.7,7604.6-450.6,7850.3,89.9C8012.4,446.2,8010,414.3,8010,1996.7c0,1317-4.9,1449.7-44.2,1594.7c-189.2,668.3-668.3,1159.8-1324.4,1358.8c-176.9,54-208.8,54-1567.6,59C4309.5,5011.5,3653.5,5009.1,3611.7,5001.7z M6457.1,4588.9c425.1-88.5,810.8-393.1,1007.4-786.3c157.3-314.5,152.4-258,152.4-1793.7c0-1521,2.4-1501.3-140.1-1793.7c-149.9-304.7-385.8-545.5-675.7-688c-206.4-100.8-344-135.1-589.7-152.4l-226-14.7L5501.3-2092c-265.4-798.6-489-1459.5-498.8-1469.3c-7.4-9.8-235.9,646.2-506.2,1454.6l-489,1474.3h-149.9c-685.5,2.5-1309.6,506.2-1449.7,1172c-51.6,240.8-51.6,2670.9-2.5,2911.7c117.9,545.5,587.3,1019.7,1130.3,1137.6C3761.6,4638,6226.1,4638,6457.1,4588.9z" />
            <path d="M3660.9,3854.2c-159.7-51.6-243.3-103.2-346.5-216.2c-196.6-213.8-194.1-184.3-194.1-1641.3c0-1213.8,2.5-1297.4,46.7-1412.9c61.4-159.7,231-336.6,390.7-407.9l127.8-59H5000h1314.6l127.8,59c159.7,71.3,329.2,248.2,390.7,407.9c44.2,115.5,46.7,199,46.7,1412.9c0,1213.8-2.5,1297.3-46.7,1412.8c-61.4,159.7-230.9,336.6-390.7,407.9l-127.8,59l-1277.7,4.9C4054,3886.2,3737,3878.8,3660.9,3854.2z M6292.4,3456.2c46.7-22.1,108.1-76.2,140.1-117.9l54.1-76.2V1996.7V731.2l-54.1-76.2c-113-159.7-95.8-157.3-1432.5-157.3c-1336.7,0-1319.5-2.5-1432.5,157.3l-54.1,76.2v1265.4v1265.4l54.1,76.2c113,159.7,90.9,157.3,1427.6,157.3C6063.9,3495.5,6218.7,3490.6,6292.4,3456.2z" />
        </g>
    </g>
</svg>