<svg version="1.1" xmlns="http://www.w3.org/2000/svg" xmlns:xlink="http://www.w3.org/1999/xlink" x="0px" y="0px" viewBox="0 0 1000 1000" enable-background="new 0 0 1000 1000" xml:space="preserve">
    <metadata> Svg Vector Icons : http://www.onlinewebfonts.com/icon</metadata>
    <g>
        <path d="M930.7,200.8c0,1.1-0.1,1.9-0.2,2.5C905.4,220.6,765.3,313,739.1,329.8c-2.7,0.1-9.8-0.8-19.7-6.1c-10.6-5.6-41.7-23-85.1-47.8l-33.8-19.3L568.7,279c-23.7,16.6-75.2,56.3-153.5,134.6c-78.7,78.7-118.3,130-134.8,153.6L258,599l19.3,33.8c18.7,32.8,41.1,72.3,47.9,85.2c5.5,10.3,5.9,17.3,5.9,19.2c0,0.4,0,0.6,0,0.8C316.4,761.5,221.4,904.6,204,929.8c-2.5,0.4-7.8,0.1-14.5-4.6c-53.9-38.9-110.1-94-118.1-115.6c5.3-115,106.4-276.3,285-454.7S696,75.4,810.6,70.1c21.7,7.7,77.2,64,115.7,117.3C929,191.4,930.7,196.2,930.7,200.8 M990,200.8c0-16.2-4.9-33.4-15.3-48.4C973.7,150.9,871,6.8,811.6,8.7C644.5,14,448.2,176.4,313,311.6C177.7,446.8,15.3,643.1,10,810.8v1.4c0,58.7,142.4,162,143.8,162.9c38.7,27.1,81.3,17.2,98.5-7.4c10.5-15,119.7-179.2,132-199.3c5.3-8.8,7.9-19.4,7.9-31.1c0-14.9-4.4-31.6-12.9-47.8c-8.3-15.9-35.6-63.7-48.9-87c14.5-20.7,51.7-69.1,128-145.5c75.8-75.8,124.6-113.3,145.4-127.9c23.4,13.3,71.2,40.6,87,48.8c29.7,15.7,59.3,17.4,79.3,4.7C789.1,370.8,952,262,967.5,250.8C982.1,240.3,990,221.3,990,200.8L990,200.8z" />
    </g>
</svg>