<?xml version="1.0" encoding="iso-8859-1"?>
<!-- Generator: Adobe Illustrator 19.0.0, SVG Export Plug-In . SVG Version: 6.00 Build 0)  -->
<svg version="1.1" id="Layer_1" xmlns="http://www.w3.org/2000/svg" xmlns:xlink="http://www.w3.org/1999/xlink" x="0px" y="0px"
	 viewBox="0 0 502 502" style="enable-background:new 0 0 502 502;" xml:space="preserve">
<g>
	<g>
		<path style="fill:#DB4949;" d="M456.5,361l-10-62H340.302c24.37-45.616,42.499-89.812,42.499-120.35
			C382.8,85.507,307.293,10,214.15,10S45.5,85.507,45.5,178.65C45.5,271.793,214.15,492,214.15,492s33.327-43.517,70.35-100.04V361
			H456.5z"/>
		<rect x="284.5" y="361" style="fill:#E6E6E6;" width="172" height="129"/>
	</g>
	<circle style="fill:#E6E6E6;" cx="214.15" cy="178.65" r="94.803"/>
	<g>
		<rect x="343.5" y="402" style="fill:#DB4949;" width="54" height="88"/>
		<g>
			<path d="M318.954,178.65c0-57.789-47.015-104.803-104.804-104.803c-57.789,0-104.803,47.015-104.803,104.803
				c0,57.789,47.015,104.804,104.803,104.804C271.939,283.454,318.954,236.439,318.954,178.65z M214.15,263.454
				c-46.761,0-84.803-38.043-84.803-84.804s38.042-84.803,84.803-84.803s84.804,38.042,84.804,84.803
				S260.911,263.454,214.15,263.454z"/>
			<path d="M125.153,90.081c2.39,0,4.788-0.852,6.701-2.58c22.593-20.412,51.819-31.654,82.296-31.654
				c17.038,0,33.525,3.42,49.006,10.165c5.063,2.206,10.957-0.11,13.162-5.173c2.206-5.063-0.11-10.956-5.173-13.162
				c-18.016-7.85-37.192-11.83-56.995-11.83c-35.44,0-69.428,13.074-95.704,36.814c-4.098,3.702-4.418,10.026-0.716,14.124
				C119.704,88.97,122.423,90.081,125.153,90.081z"/>
			<path d="M101.143,108.146c-4.889-2.567-10.935-0.685-13.502,4.205c-10.659,20.3-16.293,43.226-16.293,66.299
				c0,5.523,4.477,10,10,10s10-4.477,10-10c0-19.847,4.841-39.558,14-57.001C107.915,116.759,106.032,110.713,101.143,108.146z"/>
			<path d="M456.5,500c5.523,0,10-4.477,10-10V361c0-0.091-0.011-0.178-0.014-0.268c-0.012-0.436-0.044-0.892-0.114-1.324l-10-62
				c-0.782-4.846-4.964-8.408-9.873-8.408h-89.722c23.905-47.183,36.022-84.27,36.022-110.35C392.8,80.142,312.658,0,214.15,0
				C115.642,0,35.5,80.142,35.5,178.65c0,95.435,163.74,310.329,170.711,319.431c1.892,2.471,4.827,3.919,7.939,3.919
				s6.047-1.449,7.939-3.919c0.275-0.359,23.494-30.74,52.411-73.167V490c0,5.523,4.477,10,10,10H456.5z M444.758,351H296.242
				l6.774-42h134.968L444.758,351z M214.15,475.333c-14.172-19.112-45.222-61.928-75.95-110.545
				C84.097,279.187,55.5,214.821,55.5,178.65C55.5,91.17,126.67,20,214.15,20S372.8,91.17,372.8,178.65
				c0,24.519-12.964,61.638-38.522,110.35H294.5c-4.908,0-9.091,3.562-9.873,8.408l-10,62c-0.084,0.519-0.127,1.066-0.127,1.592
				v27.973C249.352,427.22,225.928,459.454,214.15,475.333z M353.5,480v-68h34v68H353.5z M446.5,480h-39v-78c0-5.523-4.477-10-10-10
				h-54c-5.523,0-10,4.477-10,10v78h-39V371h152V480z"/>
		</g>
	</g>
</g>
<g>
</g>
<g>
</g>
<g>
</g>
<g>
</g>
<g>
</g>
<g>
</g>
<g>
</g>
<g>
</g>
<g>
</g>
<g>
</g>
<g>
</g>
<g>
</g>
<g>
</g>
<g>
</g>
<g>
</g>
</svg>
