<svg version="1.1" xmlns="http://www.w3.org/2000/svg" xmlns:xlink="http://www.w3.org/1999/xlink" x="0px" y="0px" viewBox="0 0 1000 1000" enable-background="new 0 0 1000 1000" xml:space="preserve">
    <metadata> Svg Vector Icons : http://www.onlinewebfonts.com/icon</metadata>
    <g>
        <g transform="translate(0.000000,512.000000) scale(0.100000,-0.100000)">
            <path d="M1238.9,282.7v-4737.3H913.5H588.1v-162.7V-4780H5000h4411.9v162.7v162.7h-325.4h-325.4V282.7V5020H5000H1238.9V282.7z M8435.8,120v-4574.6H7287.3H6138.9v1148.4v1148.4H5000H3861.1v-1148.4v-1148.4H2712.7H1564.3V120v4574.6H5000h3435.8V120z M5813.5-3478.4v-976.2H5000h-813.5v976.2v976.2H5000h813.5V-3478.4z" />
            <path d="M1889.6,3718.4v-650.8H2550h660.4v650.8v650.8H2550h-660.4V3718.4z M2881.1,3714.6l3.8-321.6h-335h-335v312c0,172.3,5.7,319.6,13.4,327.3c7.7,5.7,155,9.6,329.2,7.7l317.7-5.7L2881.1,3714.6z" />
            <path d="M3535.7,3718.4v-650.8h650.8h650.8v650.8v650.8h-650.8h-650.8V3718.4z M4511.9,3718.4V3393h-325.4h-325.4v325.4v325.4h325.4h325.4V3718.4z" />
            <path d="M5162.7,3718.4v-650.8h650.8h650.8v650.8v650.8h-650.8h-650.8V3718.4z M6138.9,3718.4V3393h-325.4h-325.4v325.4v325.4h325.4h325.4V3718.4z" />
            <path d="M6789.6,3718.4v-650.8H7450h660.4v650.8v650.8H7450h-660.4V3718.4z M7781.1,3714.6l3.8-321.6h-335h-335v312c0,172.3,5.7,319.6,13.4,327.3c7.7,5.7,155,9.6,329.2,7.7l317.7-5.7L7781.1,3714.6z" />
            <path d="M1899.2,2719.3c-5.7-13.4-7.7-310.1-5.7-656.5l5.7-631.6H2550h650.8v650.8v650.8l-646.9,5.7C2044.7,2742.3,1905,2738.4,1899.2,2719.3z M2881.1,2078.1l-5.7-321.6H2550h-325.4l-5.7,321.6l-3.8,319.7h335h335L2881.1,2078.1z" />
            <path d="M3535.7,2081.9v-660.4h650.8h650.8v660.4v660.4h-650.8h-650.8V2081.9z M4511.9,2072.3V1747h-325.4h-325.4v325.4v325.4h325.4h325.4V2072.3z" />
            <path d="M5162.7,2081.9v-660.4h650.8h650.8v660.4v660.4h-650.8h-650.8V2081.9z M6138.9,2072.3V1747h-325.4h-325.4v325.4v325.4h325.4h325.4V2072.3z" />
            <path d="M6799.2,2719.3c-5.7-13.4-7.7-310.1-5.7-656.5l5.7-631.6H7450h650.8v650.8v650.8l-647,5.7C6944.7,2742.3,6805,2738.4,6799.2,2719.3z M7781.1,2078.1l-5.7-321.6H7450h-325.4l-5.7,321.6l-3.8,319.7h335h335L7781.1,2078.1z" />
            <path d="M1889.6,445.4v-650.8H2550h660.4v650.8v650.8H2550h-660.4V445.4z M2885,445.4V120h-335h-335v325.4v325.4h335h335V445.4z" />
            <path d="M3535.7,445.4v-650.8h650.8h650.8v650.8v650.8h-650.8h-650.8V445.4z M4511.9,445.4V120h-325.4h-325.4v325.4v325.4h325.4h325.4V445.4z" />
            <path d="M5162.7,445.4v-650.8h650.8h650.8v650.8v650.8h-650.8h-650.8V445.4z M6138.9,445.4V120h-325.4h-325.4v325.4v325.4h325.4h325.4V445.4z" />
            <path d="M6789.6,445.4v-650.8H7450h660.4v650.8v650.8H7450h-660.4V445.4z M7785,445.4V120h-335h-335v325.4v325.4h335h335V445.4z" />
            <path d="M1889.6-1181.6v-650.8H2550h660.4v650.8v650.8H2550h-660.4V-1181.6z M2881.1-1185.4l3.8-321.6h-335h-335v312c0,172.3,5.7,319.7,13.4,327.3c7.7,5.7,155,9.6,329.2,7.7l317.7-5.7L2881.1-1185.4z" />
            <path d="M3535.7-1181.6v-650.8h650.8h650.8v650.8v650.8h-650.8h-650.8V-1181.6z M4511.9-1181.6V-1507h-325.4h-325.4v325.4v325.4h325.4h325.4V-1181.6z" />
            <path d="M5162.7-1181.6v-650.8h650.8h650.8v650.8v650.8h-650.8h-650.8V-1181.6z M6138.9-1181.6V-1507h-325.4h-325.4v325.4v325.4h325.4h325.4V-1181.6z" />
            <path d="M6789.6-1181.6v-650.8H7450h660.4v650.8v650.8H7450h-660.4V-1181.6z M7781.1-1185.4l3.8-321.6h-335h-335v312c0,172.3,5.7,319.7,13.4,327.3c7.7,5.7,155,9.6,329.2,7.7l317.7-5.7L7781.1-1185.4z" />
        </g>
    </g>
</svg>