<svg version="1.1" xmlns="http://www.w3.org/2000/svg" xmlns:xlink="http://www.w3.org/1999/xlink" x="0px" y="0px" viewBox="0 0 1000 1000" enable-background="new 0 0 1000 1000" xml:space="preserve">
    <metadata> Svg Vector Icons : http://www.onlinewebfonts.com/icon</metadata>
    <g>
        <g transform="translate(0.000000,512.000000) scale(0.100000,-0.100000)">
            <path d="M1510.5,5013.5c-291.4-49.8-571.3-247.3-705.6-500.4c-126.5-237.8-118.9,76.7-118.9-4394.4c0-3581.5,3.8-4070.4,28.8-4170.1c86.3-324,327.9-579,661.5-692.1c101.6-34.5,237.7-36.4,3623.7-36.4c3385.9,0,3522.1,1.9,3623.7,36.4c333.6,113.1,575.2,368.1,661.5,692.1c24.9,99.7,28.8,588.6,28.8,4170.1c0,4471.1,7.7,4156.7-118.9,4394.4c-109.3,207.1-301,368.1-548.3,462.1l-109.3,42.2l-3489.5,1.9C3128.7,5021.2,1537.4,5019.3,1510.5,5013.5z M8410.9,4624.3c218.6-36.4,368.1-147.6,460.1-343.2l49.8-107.4V118.7v-4055.1l-49.8-107.4c-92-195.6-241.6-306.8-460.1-343.2c-168.7-26.8-6653-26.8-6821.7,0c-218.6,36.4-368.1,147.6-460.1,343.2l-49.9,107.4V118.7v4055.1l49.9,107.4c90.1,189.8,243.5,306.8,442.9,341.3C1721.4,4647.3,8257.5,4647.3,8410.9,4624.3z" />
            <path d="M6299.9,3838.2c-251.2-44.1-393-345.1-264.6-569.4c153.4-272.2,563.7-258.8,692.1,23C6859.8,3579.4,6614.4,3890,6299.9,3838.2z" />
            <path d="M7684.2,3838.2c-255-46-396.9-312.5-289.5-546.4c126.5-272.3,521.5-299.1,676.8-46c80.5,126.5,88.2,239.7,28.8,368.1C8025.5,3778.8,7858.7,3868.9,7684.2,3838.2z" />
            <path d="M4779.5,2465.4c-667.2-69-1252-339.4-1706.4-788c-534.9-529.2-814.9-1198.3-814.9-1951.8c0-753.5,287.6-1436,830.2-1967.1c389.2-381.6,929.9-653.8,1489.7-747.7c186-30.7,657.6-30.7,843.6,0c559.9,93.9,1100.5,366.2,1489.7,747.7c542.6,531.1,830.2,1213.6,830.2,1967.1c0,1037.3-556,1951.8-1482.1,2436.9c-230.1,118.9-531.1,222.4-774.6,264.6C5312.5,2457.8,4915.6,2478.9,4779.5,2465.4z M5536.8,2018.7c684.5-172.6,1242.4-609.7,1556.8-1221.3c105.5-205.1,258.8-678.7,220.5-678.7c-3.8,0-65.2,26.8-136.1,57.5c-151.5,69-354.7,115-510,115c-176.4,0-370-46-772.7-180.2C5423.7-48.1,5241.6-80.7,4923.3-67.3c-278,11.5-389.2,40.3-830.2,207.1c-164.9,61.3-354.7,126.5-421.8,141.9c-258.8,61.4-582.9,21.1-855.1-105.4c-67.1-32.6-124.6-57.5-130.4-57.5c-15.3,0,17.3,143.8,74.8,325.9c247.3,788,931.8,1409.2,1740.9,1579.8c78.6,15.3,164.9,32.6,191.7,38.3c26.8,3.8,189.8,5.8,364.3,1.9C5299.1,2060.9,5412.2,2049.4,5536.8,2018.7z M3629.1-115.2c42.2-9.6,228.2-74.8,412.2-143.8c433.3-163,623.1-201.3,958.6-203.2c331.7,0,504.2,32.6,977.8,187.9c487,159.1,513.8,164.9,690.2,164.9c210.9,0,423.7-76.7,627-226.3c67.1-47.9,65.2-30.7,23-322.1c-65.2-464-312.5-937.5-671.1-1292.2c-912.6-899.2-2387-899.2-3295.8,0c-356.6,354.7-603.9,830.2-669.1,1292.2c-44.1,297.2-46,272.3,42.2,333.6c161.1,109.3,412.2,216.6,559.8,237.7C3356.9-75,3531.4-88.4,3629.1-115.2z" />
        </g>
    </g>
</svg>