<?xml version="1.0" encoding="utf-8"?>
<!-- Svg Vector Icons : http://www.onlinewebfonts.com/icon -->
<!DOCTYPE svg PUBLIC "-//W3C//DTD SVG 1.1//EN" "http://www.w3.org/Graphics/SVG/1.1/DTD/svg11.dtd">
<svg version="1.1" xmlns="http://www.w3.org/2000/svg" xmlns:xlink="http://www.w3.org/1999/xlink" x="0px" y="0px" viewBox="0 0 1000 1000" enable-background="new 0 0 1000 1000" xml:space="preserve">
<metadata> Svg Vector Icons : http://www.onlinewebfonts.com/icon </metadata>
<g><g transform="translate(0.000000,512.000000) scale(0.100000,-0.100000)"><path d="M4818.1,5018.1c-1758.6-59.5-3382.8-1096.2-4181.5-2670.5c-220.8-432-368.6-862-453.1-1309.4C66.4,418.1,72.2-276.9,202.7-900.9c149.7-725.7,503-1466.8,988.7-2073.4c508.8-635.5,1251.7-1173,2042.7-1484.1c568.3-222.7,1119.3-322.5,1766.3-322.5c808.3,0,1499.4,163.2,2209.8,522.2c1213.4,614.4,2106.1,1689.5,2501.6,3012.3c215,720,247.6,1606.9,88.3,2376.8C9610,2040.4,9135.8,2912,8465.8,3582C7500.1,4547.7,6186.9,5064.1,4818.1,5018.1z M5432.4,2737.3C6547.9,2556.8,7400.3,1744.7,7642.2,635c49.9-230.4,51.8-806.3,1.9-1036.7c-76.8-357.1-224.6-708.4-422.4-998.3c-142.1-205.4-485.7-545.3-700.8-687.3c-316.8-211.2-648.9-345.6-1021.4-418.5c-272.6-51.8-750.7-48-1017.5,9.6c-236.1,49.9-435.8,115.2-627.8,207.3l-140.1,65.3l-731.5-232.3c-403.2-128.7-735.3-228.5-741.1-224.6c-3.8,5.8,97.9,326.4,228.5,712.3l238.1,700.8l-99.8,201.6c-201.6,410.8-264.9,691.2-264.9,1182.6c0,316.8,5.8,378.2,49.9,570.2c134.4,566.4,408.9,1029,846.7,1420.7c347.5,311,846.7,547.2,1328.5,627.8C4777.7,2771.8,5219.3,2771.8,5432.4,2737.3z"/><path d="M4712.5,2313c-328.3-59.5-597.1-151.7-815.9-280.3C3000,1504.7,2581.4,479.5,2863.6-497.7c55.7-192,165.1-433.9,266.9-587.5l72.9-109.4L3071-1588.2c-74.9-216.9-136.3-399.3-140.1-407c-3.8-9.6,180.5,44.1,408.9,117.1c226.5,72.9,422.4,132.5,432,132.5s61.4-26.9,115.2-59.5c464.6-286,1132.7-376.3,1695.2-228.4c489.6,128.6,996.4,483.8,1274.8,892.7C7250.5-559.1,7352.3,155,7131.5,811.7C6893.4,1522,6306,2065.3,5563,2261.1c-157.4,40.3-238.1,49.9-495.3,55.7C4898.7,2318.7,4739.4,2316.8,4712.5,2313z M4334.3,1303.1c30.7-25,282.2-595.2,282.2-645.1c0-44.2-55.7-134.4-144-234.2c-48-53.8-86.4-105.6-86.4-113.3c0-36.5,168.9-268.8,288-391.7c151.7-163.2,305.3-274.5,516.4-376.3c124.8-59.5,169-73,195.8-57.6c21.1,9.6,94.1,88.3,163.2,170.9c101.7,122.9,136.3,153.6,178.5,153.6c28.8,0,186.2-67.2,349.4-147.9l295.7-149.7l-1.9-111.4c-5.8-224.6-107.5-366.7-349.4-480c-232.3-107.5-480-74.9-965.7,130.6C4653-779.9,4276.7-438.2,3940.7,62.9c-247.7,368.6-303.3,687.3-168.9,967.6c48,97.9,182.4,255.3,238.1,276.5C4073.2,1333.8,4297.8,1330,4334.3,1303.1z"/></g></g>
</svg>